<svg width="798" height="3420" viewBox="0 0 798 3420" fill="none" xmlns="http://www.w3.org/2000/svg">
<path d="M-177.4 -605.2C-176.2 -599.2 -177.8 -596 -181.4 -596C-184.6 -596 -187 -594 -187 -592C-187 -589.2 -184.6 -589.2 -179 -592C-174.6 -594.4 -171 -598 -171 -600C-171 -602.4 -169 -604 -167 -604C-160.6 -604 -162.6 -592.4 -171 -580.8C-178.2 -570.8 -181 -555.2 -182.6 -507.2C-183 -497.2 -184.2 -496.4 -195.8 -497.6C-203 -498.4 -209.4 -501.2 -210.2 -503.6C-213.8 -514 -219.8 -506.8 -218.2 -494.4C-217 -484.4 -218.6 -479.2 -223.8 -475.2C-227.8 -472.4 -231 -468 -231 -464.8C-231 -462 -232.6 -460.8 -235 -462C-237.4 -463.6 -237 -467.2 -234.2 -472C-230.2 -478 -230.2 -480.8 -233.8 -484.4C-237.8 -488.4 -239.8 -486.8 -242.6 -478.8C-247.4 -466.4 -244.6 -456 -236.2 -456C-233 -456 -231.8 -454 -233 -452C-234.6 -449.6 -237.8 -449.2 -240.2 -450.4C-243 -452 -243.8 -452 -242.2 -450C-240.6 -448.4 -241.4 -443.2 -243.4 -438.8C-247 -432.8 -248.6 -432 -251.4 -436.4C-253 -439.2 -255.8 -440.8 -257 -439.6C-260.6 -436 -245.8 -412 -239.8 -412C-232.6 -412 -233.8 -406.8 -243 -396.8C-247.4 -392 -251 -386 -251 -383.2C-251.4 -380.4 -255.8 -372.8 -261 -366C-269 -356.4 -271 -355.6 -271 -361.2C-271 -365.6 -273 -367.2 -275.4 -365.6C-277.8 -364.4 -279 -358.4 -277.8 -352.8C-276.6 -346.8 -279 -337.6 -283.4 -330.4C-289.8 -320 -291 -319.2 -291.4 -326C-291.4 -331.6 -292.2 -332.4 -293.8 -328C-295 -324.8 -298.6 -319.6 -302.2 -317.2C-307.4 -313.2 -309.8 -313.2 -315.8 -318.4C-322.2 -324.8 -323 -324.4 -327 -313.6C-329.8 -307.2 -332.6 -293.2 -333.8 -282.8C-335.4 -269.6 -337.8 -264 -341.4 -265.6C-345 -266.8 -346.2 -263.2 -345.8 -252.8C-345.4 -233.2 -357.8 -203.6 -365.4 -206.8C-369 -208 -371 -206.4 -371 -202C-371 -197.2 -373 -196 -377.4 -197.6C-382.6 -199.6 -383.4 -198 -382.2 -190.4C-381 -184 -382.2 -179.6 -385.8 -178.4C-395 -174.8 -395 -175.2 -389.4 -191.2C-383.8 -206.8 -386.2 -218 -396.6 -224.8C-401.8 -228.4 -410.6 -213.2 -411 -200.4C-411 -194 -412.6 -192 -417 -193.6C-421 -195.2 -423 -193.2 -423 -188C-423 -183.6 -425.4 -180 -427.8 -180C-431 -179.6 -429.8 -177.2 -425.4 -174C-418.6 -168.8 -418.6 -168 -424.6 -162C-428.2 -158.4 -431 -149.6 -431 -142.4C-431 -131.2 -442.6 -107.6 -443 -118C-443 -120.4 -441 -124.4 -438.2 -127.2C-435.4 -130 -434.6 -132 -436.6 -132C-442.6 -132 -451 -120.4 -451 -112.4C-451 -108 -452.6 -103.2 -455 -102C-457 -100.8 -458.2 -94.8003 -457.4 -88.8003C-456.6 -82.8003 -457 -81.2002 -457.8 -85.2002C-459.8 -93.6003 -466.6 -94.0002 -469.4 -86.0002C-471 -82.0002 -474.6 -80.8003 -479 -82.0002C-483 -83.2002 -489 -81.6003 -492.2 -78.4004C-495.4 -75.2002 -499.4 -73.6003 -501 -75.2002C-502.6 -76.8003 -502.6 -71.2002 -501 -63.2002C-498.6 -50.4004 -499.4 -48.0002 -504.6 -48.0002C-508.6 -48.0002 -510.2 -46.4004 -509 -44.0002C-507.8 -42.0002 -508.6 -40.0002 -510.6 -40.0002C-513 -40.0002 -515 -36.4004 -515 -32.0002C-515 -27.6003 -516.6 -24.0002 -519 -24.0002C-523.4 -24.0002 -519.8 -0.400391 -513.8 6.7998C-511 10.3997 -511.8 11.9998 -516.6 11.9998C-520.2 11.9998 -523 14.3997 -523.4 16.7998C-523.8 19.5996 -524.2 34.3997 -525 49.1997L-526.2 76.3997L-517.4 68.3997C-512.2 63.5996 -507 61.1997 -505.8 62.7998C-501.8 66.7998 -502.6 58.3997 -506.6 53.5996C-511.8 47.9998 -515.8 27.9998 -511.4 27.9998C-509 27.9998 -505 32.7998 -502.2 38.7998C-495.8 51.9998 -488.2 54.7998 -485.8 45.1997C-484.2 38.7998 -483.4 39.1997 -481 46.7998C-479.4 51.9998 -476.6 54.7998 -474.6 53.5996C-472.6 52.3997 -472.6 55.9998 -475 61.5996C-479.4 73.5996 -472.2 81.1997 -466.2 70.3997C-464.2 66.7998 -460.6 63.9998 -458.2 63.9998C-455.4 63.9998 -455.4 65.5996 -458.6 69.5996C-461 72.3997 -462.6 80.3997 -462.2 87.1997C-461.8 93.5996 -463.8 102 -467 106C-471.4 111.6 -471.4 112.4 -466.6 111.2C-463 110.4 -461 113.2 -461 118.8C-461 123.6 -459.4 128.8 -457.8 130.4C-456.2 132 -455 136.8 -455 140.8C-455 146.8 -457 147.6 -465 145.6C-473.4 143.6 -475 144.4 -475 152C-475 156.4 -473.4 159.6 -471.4 158C-469 156.8 -468.2 175.2 -469.8 206C-471.8 250.8 -471.4 256 -465.8 256C-461.8 256 -459 257.6 -459 260C-459 262 -457 264 -455 264C-452.6 264 -451 261.2 -451 257.6C-451 250 -461 239.2 -465 243.2C-467.4 246 -463.4 224.8 -460.2 218.8C-456.2 212 -450.6 216.8 -453 224.8C-455.8 234 -455.8 234 -449.8 226C-441.8 216 -445.4 196.4 -456.6 187.6C-464.2 181.6 -464.2 180 -459.4 170.4C-452.6 158 -445 157.2 -439 168C-433.8 177.6 -427 178.4 -427 170C-427 162.8 -420.6 162 -416.6 168.4C-415.4 170.8 -416.6 174.4 -419.4 176.4C-422.6 178 -425.4 184.8 -425.8 190.8C-427.8 222.8 -428.6 228 -431.8 228C-433.4 228 -435 234 -434.6 240.8C-434.6 252.4 -434.2 252.8 -431 245.6C-427.8 237.6 -421.8 233.2 -413.4 232.8C-411.4 232.8 -407.8 229.6 -405.8 225.6C-401.8 218.8 -401.4 218.8 -398.6 226C-396.2 232.8 -395.4 232.4 -395.4 222.8C-395 216.8 -396.6 212 -398.6 212C-400.6 212 -403 206.4 -403.8 200C-405 193.2 -403.8 188 -401.8 188C-399.8 188 -399 185.2 -400.6 182C-402.2 178 -400.2 176 -394.6 176C-389 176 -387 174 -387.8 168.8C-388.6 164 -392.2 162.4 -399.4 163.2C-407 164 -410.6 162.4 -412.2 156.4C-413.4 151.2 -412.6 149.2 -408.6 150.8C-397.4 154.8 -394.2 147.2 -403.4 137.6C-408.2 132.4 -413.8 129.2 -415.8 130.4C-417.8 131.6 -424.2 128 -429.8 122.4C-435.4 116.8 -442.2 112 -444.6 111.6C-447 111.6 -445 110 -439.8 108C-435 106 -431 100.8 -431 96.3997C-431 92.3997 -428.2 87.9998 -425 86.3997C-421.8 85.1997 -419 80.3997 -419 75.9998C-419 71.5996 -417 67.9998 -414.6 67.9998C-411.8 67.9998 -411 71.9998 -411.8 77.9998C-413.8 87.9998 -409 91.9998 -405.8 82.7998C-404.6 79.5996 -400.2 81.5996 -392.2 89.1997C-385.4 95.1997 -373.4 101.2 -365.4 102.8C-355 104.4 -349.4 108 -347 113.6C-344.2 120.8 -343.4 121.2 -341 115.2C-339.4 111.6 -335.8 109.6 -332.6 110.8C-329 112 -327 110 -327 104.8C-327 100.4 -324.2 95.5996 -320.6 94.3997C-315.8 92.7998 -315 93.9998 -317 99.9998C-319.8 109.2 -313 111.2 -309.4 102C-308.2 98.7998 -303.8 95.9998 -300.2 95.9998C-296.2 95.9998 -288.6 93.1997 -283.8 89.5996C-279 86.3997 -273 84.7998 -271 85.9998C-268.6 87.1997 -267 85.5996 -267 82.3997C-267 79.1997 -268.6 75.1997 -271 73.9998C-273 72.7998 -275 73.9998 -275 76.7998C-275 81.1997 -275.8 81.1997 -278.6 76.7998C-280.2 73.9998 -280.2 62.7998 -278.6 52.3997C-277 41.5996 -277.4 25.9998 -279 17.5996C-282.2 5.19971 -281.4 1.19971 -276.6 -2.80029C-273 -5.2002 -271.4 -9.2002 -272.6 -11.2002C-273.8 -13.2002 -271 -16.0002 -266.6 -17.2002C-259.8 -19.2002 -259 -20.8003 -263 -27.6003C-266.6 -34.4004 -266.2 -36.0002 -261 -36.0002C-257.4 -36.0002 -255.4 -34.4004 -257 -32.4004C-258.2 -30.0002 -255.8 -26.8003 -252.2 -24.4004C-245.4 -20.8003 -245.4 -20.0002 -253 -14.4004C-260.6 -8.40039 -260.6 -8.40039 -250.6 -10.0002C-240.6 -12.0002 -240.2 -11.2002 -242.6 1.19971C-244.6 11.1997 -247.4 14.3997 -256.2 15.1997C-262.2 15.9998 -267 17.9998 -267 19.9998C-267 27.5996 -261.8 35.9998 -257 35.9998C-253.4 35.9998 -251 41.5996 -250.2 50.7998C-248.6 69.1997 -238.2 71.5996 -223.4 57.1997C-218.2 51.9998 -210.2 47.9998 -205.4 47.5996C-187.4 47.1997 -165.4 1.59961 -175 -16.0002C-181 -26.8003 -179.8 -31.2002 -171 -34.0002C-166.6 -35.2002 -163 -38.8003 -163 -41.6003C-163 -44.8003 -160.2 -49.2002 -157 -52.0002C-151.8 -56.0002 -151 -55.6003 -151 -47.6003C-151 -36.8003 -144.6 -41.6003 -142.2 -54.0002C-141.4 -58.4004 -138.2 -62.0002 -135 -62.0002C-127.4 -62.0002 -125 -45.6003 -131 -38.0002C-133.8 -34.8003 -134.6 -29.2002 -133.4 -25.6003C-131.8 -22.0002 -135.8 -13.6003 -143 -4.80029C-155 9.99976 -159 29.1997 -150.6 34.3997C-148.2 35.5996 -144.6 34.3997 -142.6 31.5996C-139.8 27.1997 -138.2 26.7998 -135.8 31.1997C-133 35.1997 -131.4 35.1997 -127 29.9998C-123.4 25.5996 -123.4 23.9998 -126.6 23.9998C-129.4 23.9998 -130.6 22.3997 -129 19.9998C-127.8 17.9998 -124.2 17.1997 -121.4 18.3997C-118.6 19.5996 -115 17.5996 -113.8 14.3997C-112.2 10.7998 -107.8 7.99976 -103.4 7.99976C-98.9998 7.99976 -94.1998 5.99976 -92.9998 3.99976C-91.7999 1.59961 -92.1998 -0.000244141 -94.5999 -0.000244141C-96.9998 -0.000244141 -97.7999 -2.80029 -96.1998 -6.40039C-94.5999 -11.2002 -92.9998 -11.6003 -90.5999 -7.60034C-88.5999 -4.00024 -86.1998 -5.60034 -82.5999 -13.2002C-80.1998 -18.8003 -76.1998 -22.8003 -74.1998 -21.6003C-72.5999 -20.4004 -74.5999 -14.4004 -78.9998 -8.00024C-87.3998 3.59961 -88.5999 10.7998 -84.5999 21.5996C-80.1998 32.3997 -71.3998 28.7998 -62.9998 11.9998C-58.5999 3.19971 -56.5999 -4.00024 -58.5999 -4.00024C-64.9998 -4.00024 -58.5999 -16.8003 -46.1998 -29.2002C-40.1998 -35.6003 -34.9998 -42.8003 -34.9998 -45.6003C-34.9998 -57.2002 -18.5999 -87.2002 -11.3998 -89.2002C-0.599854 -92.0002 12.6002 -119.2 10.2001 -134.4C7.80017 -150.8 15.4001 -155.6 18.6002 -140C21.8002 -124 25.8002 -124.8 39.4001 -145.2L50.6002 -162L53.4001 -150C57.0001 -134 57.8002 -102 54.6002 -98.8003C53.0001 -97.6003 51.8002 -89.6003 51.4001 -81.2002C51.0001 -72.8003 47.8002 -60.0002 44.2001 -53.2002C40.6002 -46.0002 36.6002 -33.2002 35.0001 -24.0002C33.4001 -15.2002 30.2001 -6.80029 27.4001 -5.2002C24.6002 -3.2002 18.2001 10.3997 13.4001 25.9998C8.60016 41.1997 2.60016 57.9998 -0.199829 63.1997C-2.99982 69.1997 -2.99982 73.5996 -0.199829 76.3997C5.80017 82.3997 18.2001 68.7998 15.8002 59.5996C14.2001 53.1997 16.2001 51.9998 28.2001 52.3997C36.6002 52.7998 39.8002 53.5996 36.2001 54.7998C32.2001 55.5996 29.0001 58.7998 29.0001 61.9998C29.0001 69.9998 45.8002 72.3997 55.8002 65.9998C67.0001 58.3997 69.0001 58.3997 69.0001 65.9998C69.0001 69.1997 67.0001 71.9998 64.6002 71.9998C62.2001 71.9998 61.4001 74.7998 62.6002 78.7998C64.2001 82.7998 61.4001 89.5996 54.2001 97.1997L43.0001 109.2L54.2001 106.4C60.2001 104.8 67.4001 105.2 70.2001 106.8C75.4001 110 77.4001 110.4 92.2001 111.2C104.6 112.4 103 116.4 85.0001 129.6C76.2001 136.4 69.0001 144.4 69.0001 148.4C69.0001 152 65.8002 156 61.8002 156.8C53.4001 159.2 45.0001 183.2 47.8002 197.6C49.8002 206.4 51.4001 207.6 58.6002 205.6C70.2001 202 77.4001 196 74.6002 191.6C73.4001 189.6 75.4001 188 78.6002 188C87.8002 188 86.6002 205.2 77.0001 214C68.6002 221.6 66.2001 232 72.6002 232C75.0001 232 77.8002 230 79.0001 228C83.0001 221.6 89.0001 223.2 89.0001 230.4C89.0001 235.6 92.6002 236.4 107 235.2C125.4 234 130.2 238.8 119.4 247.6C115.4 250.8 113 251.2 111 248C107 241.6 92.6002 243.2 86.6002 250.8C79.0001 260.8 79.4001 280 87.0001 280C90.2001 280 93.0001 281.6 93.0001 284C93.0001 290.8 100.2 288.4 102.6 280.8C105 273.2 120.6 262.4 124.2 265.6C125.4 267.2 124.2 270.4 121.8 272.8C115.4 279.2 115.8 290.8 122.2 293.2C125.8 294.4 125 296.4 120.2 300.4C116.6 303.6 111.8 313.2 109.4 322C107 330.8 101.4 340.4 97.0001 343.2C92.2001 346 89.0001 352.4 89.0001 358.4V368.8L101.8 361.2C110.6 356 115.8 349.6 117.4 341.6C118.6 335.2 121.4 330.4 124.2 331.2C127 331.6 129 329.6 129 326.4C129 323.6 131.8 318.8 135 316C140.2 311.6 140.2 312.8 135 328C131.8 337.6 129.8 346.4 131.4 347.6C134.6 351.2 149 330.8 148.2 324C147.4 320.8 148.6 316 150.2 313.2C151.8 310.4 153.8 300 154.6 289.6C155.4 279.6 158.2 269.6 160.6 268C163.4 266.4 167 260 169 253.6C172.2 244 172.6 243.6 171.4 252C170.6 257.6 168.6 265.2 167 268.8C165.4 272.8 165.8 276 168.2 276C172.6 276 177 262.8 177 248.4C177 243.2 181.4 233.2 186.6 226.4C191.8 219.6 197 208.4 198.6 202C200.2 195.2 204.6 185.6 209 180C216.6 170 217 170 217 178.8C217 183.6 214.6 193.6 211.4 200.8C208.2 208 203 222 199.8 232C196.2 242 189.8 260.8 185.4 273.6C175.4 302 174.6 313.6 183 310.4C189.8 308 191.4 318 185 322C180.2 325.2 179.8 336 184.6 336C186.6 336 191 330 194.6 322.8L201 310V324C201 342.4 205 356 209.8 356C212.6 356 213.4 348 212.2 335.2C210.2 317.2 211.8 310.4 223.4 286.4C231.4 270 235.8 257.2 233.4 254.8C231.4 252.8 232.2 246.4 235.8 239.6C239 233.6 241.8 224.4 242.2 220C242.6 214.8 244.6 212.4 248.2 214C251.8 215.2 253 213.6 251.4 208.8C250.2 205.2 251 199.2 253 196C256.6 190.8 258.2 191.2 264.2 199.2C271.8 209.2 277 207.2 277 194.4C277 189.6 279.8 180.8 283 174.4C286.2 168.4 289 159.6 289 155.6C289 149.2 290.2 148.4 297 152C301 154.4 307 155.6 309.8 155.2C312.6 154.4 315.4 158 316.2 162.8C317 168 320.2 172 323.4 172C327.4 172 329 177.2 329 192C329 207.2 330.6 212 335 212C338.2 212 341 209.2 341 206C341 202.8 344.6 198.4 349 196C353.4 193.6 357 188 356.6 182.8C356.2 174.4 356.2 174.8 353 184C350.2 194 350.2 194 348.6 182C347.4 174.4 349.4 167.6 353.4 164C357 160.8 361 154.4 362.2 150C363.8 142.8 364.2 142.8 364.6 150.8C364.6 156 367 160 369.4 160C372.6 160 373.4 154.8 371.8 144.8C365 102 363.8 78.7998 368.6 81.5996C371 83.1997 373 87.1997 373 89.9998C373 93.1997 376.6 97.5996 380.6 99.9998C386.2 102.8 389.4 110.4 391 126C393.8 147.2 400.6 160 409.4 160C411.8 160 413 156.8 412.6 152.8C412.2 149.2 412.2 143.2 412.6 140C413.8 127.6 421 145.6 421 160.8C421 171.6 423.8 177.6 431 183.2C436.6 187.6 441 194 441 197.6C441 201.2 442.6 204 444.6 204C446.6 204 448.6 198 448.6 190.8C448.6 184 449.8 160.4 451.4 138.8C454.2 93.5996 459.4 89.9998 469.4 126.8C473 140.4 477.8 154.4 480.2 158C485.4 167.6 489.8 159.2 485.4 147.2C483.8 142.4 481 131.2 479.4 122.8C477 109.2 477.4 108 486.2 108C497.4 108 503 113.6 506.6 128.8C509 139.2 521 145.2 521 136C521 126.4 507.8 99.9998 502.6 99.9998C495 99.9998 487 69.1997 493 61.9998C495.8 58.7998 496.2 49.1997 494.6 36.3997C491.8 14.3997 495.4 10.7998 507.4 22.7998C514.2 29.5996 514.2 29.1997 511.4 18.7998C507.4 1.99976 516.2 5.99976 520.6 22.7998C523 31.1997 525 40.7998 525 44.3997C525 47.9998 528.2 55.1997 532.6 60.3997C536.6 65.5996 541 73.5996 542.6 77.9998C544.2 83.9998 548.2 86.3997 555.8 85.9998C569 85.9998 571 79.9998 563.4 64.3997C556.2 50.7998 555 31.9998 561 31.9998C563.4 31.9998 566.2 35.1997 567.4 38.7998C571.4 51.9998 575.4 57.1997 582.2 58.3997C593.8 59.9998 588.2 43.1997 571 23.9998C566.2 18.3997 558.6 8.7998 554.6 2.39966C547.4 -9.2002 547.4 -9.2002 556.2 -6.40039C567.4 -2.80029 567.4 -8.80029 556.2 -27.6003C551.8 -35.6003 550.2 -39.6003 553 -37.2002C556.2 -34.4004 563.8 -32.0002 570.2 -32.0002C578.2 -32.0002 582.2 -29.6003 583.8 -24.0002C585 -19.6003 587.4 -16.0002 589.4 -16.0002C595 -16.0002 593.8 -19.2002 584.6 -31.6003C579.4 -38.4004 577 -47.2002 577.8 -54.4004C579 -65.2002 579.8 -64.4004 590.2 -42.8003C596.6 -30.4004 605.4 -18.0002 610.2 -15.2002C615 -12.8003 621.8 -7.60034 625.4 -3.2002C633.8 5.99976 637 5.99976 637 -3.60034C637 -7.60034 634.2 -12.0002 631 -13.6003C623.8 -16.4004 623.4 -23.2002 629.8 -44.0002C635 -59.6003 649.8 -70.8003 646.2 -55.6003C644.6 -50.8003 646.2 -48.0002 649.8 -48.0002C653 -48.0002 657.8 -43.6003 660.2 -38.0002C664.2 -29.6003 663.8 -26.0002 658.6 -18.0002C651.4 -7.2002 654.6 3.19971 662.6 -3.60034C669.4 -9.2002 672.6 -5.60034 670.2 4.39966C667.8 12.7998 657 15.1997 657 7.19971C657 3.99976 655.8 3.59961 653 6.39966C649.8 9.59961 649.8 13.9998 653 21.5996C656.6 31.5996 656.2 32.3997 649.4 29.9998C641.8 27.5996 641.8 27.9998 649.4 43.9998C658.6 62.7998 661.8 63.5996 668.2 49.5996C671 43.9998 678.6 37.5996 685 35.1997C699 30.3997 699.8 24.7998 689 10.7998C683.8 4.39966 682.6 -0.400391 685 -2.00024C691 -5.60034 689.8 -22.8003 683.4 -25.2002C677.8 -27.6003 651.4 -64.0002 654.2 -66.4004C655 -67.2002 661.4 -62.4004 668.6 -56.0002C675.8 -49.2002 685 -44.0002 689.4 -44.0002C696.6 -44.0002 696.6 -45.2002 686.6 -59.6003C678.6 -71.6003 677 -78.4004 679 -87.2002C680.2 -94.4004 679.8 -100.4 677.4 -102C670.2 -106 672.6 -118.8 682.6 -134C692.2 -147.6 693 -148 698.6 -141.2C701.8 -137.2 710.6 -127.6 717.4 -120C726.6 -110 730.2 -102.8 729.8 -93.2002C729.4 -83.6003 731.4 -78.8003 737.4 -75.6003C742.2 -73.2002 749.4 -63.2002 753.8 -53.6003C758.2 -43.2002 765.4 -34.0002 770.6 -32.0002C776.6 -30.0002 785 -18.0002 794.6 1.19971C811 34.7998 823.8 53.1997 829 49.9998C830.6 48.7998 833.4 58.3997 835 70.7998C837 87.5996 840.6 96.3997 849.4 105.6C857.8 114.8 860.2 120.4 858.2 127.6C856.6 133.6 857.8 138.8 861.4 141.6C871.4 149.2 876.6 173.6 870.6 184.4C865.4 194 867 202 873 198C875 196.8 875.8 193.2 874.2 190C873 186.8 874.2 184 876.6 184C879 184 881 186.8 881 190.4C881 194 885 197.6 889.4 198.8C897.4 201.2 897.8 203.2 895.8 224C892.6 254.4 889.4 261.6 882.6 255.6C879.4 253.2 878.2 247.2 879.4 240.4C881.4 231.6 879 226.8 866.6 214.8C845 194 839.4 195.2 849.4 218.8C853.8 229.6 860.6 244.4 864.6 252C873 268 880.6 324.8 873.4 318C871 315.6 866.6 306.8 863.8 298C857.4 279.2 839.4 264 832.2 271.2C828.6 274.8 829.4 277.6 835 284C842.2 292 842.2 292 833 292C826.2 292 824.6 293.6 827.4 298.8C829 302.8 829.8 312.8 829.4 321.2C828.6 336.8 834.6 352 841 352C843.4 352 845 348.8 845 344.8C845 336 855.4 321.2 859 324.8C860.6 326.4 859 332.4 855.8 338.8C852.2 344.8 848.2 356.8 847 365.2C845 378.4 843.8 380 835 377.6C825 375.2 821 381.2 829 386C831.4 387.2 833 392 833 396.4C833 400.4 831.4 404 829 404C827 404 825 402 825 400C825 397.6 822.2 396 818.6 396C814.6 396 813 398.4 814.2 402C818.2 411.6 810.6 412.4 805.4 402.8C802.2 396.8 801.8 390.4 804.2 384C806.6 377.6 806.2 367.6 803.4 356C800.2 342 797 337.6 790.2 336.8C783.4 335.6 779.8 338.4 776.2 346.4C771.8 356 772.2 357.6 779.8 362.8C787.4 368 788.2 371.2 786.2 389.2C785 400.8 781.4 411.6 778.6 413.2C775.4 414.8 773 419.6 773 423.2C773 428.4 771 428 765 420C759.4 412.4 756.2 411.2 753 414.4C749.8 417.6 749.4 420 752.6 421.6C759 425.6 758.2 445.2 751 454.4C747.8 458.4 745 464.8 745 468.4C745 472 742.6 477.2 739.4 479.6C735.4 482.8 734.2 497.6 734.2 539.2C734.2 582 733 597.2 727.8 606.4C724.6 612.8 720.6 621.2 719.4 624.8C716.2 635.2 709 633.6 709 622.4C709 606.4 702.2 606.8 697 622.8C691.8 638.4 682.2 652 676.2 652C671 652 672.6 644 679 637.6C688.2 628.4 687 612 677 612C665.4 612 667 600.8 679 597.6C687.4 595.6 688.6 593.6 686.6 584.4C685 578.8 683.4 573.2 682.6 572.4C680.6 570 636.6 571.6 632.2 574.4C629.8 576 626.6 574.8 625 572C623 569.2 619 568 615 569.6C609.4 571.6 608.6 574.8 610.6 584.8C611.8 592 611 599.6 608.2 602.8C603 609.2 602.6 630 607 641.2C608.6 645.2 607.8 652.4 605.4 657.2C602.2 663.2 601.4 676.8 603 698C606.2 736 606.2 734 603 754C601.8 762.8 600.2 773.6 599.4 778C597.4 794 592.6 803.6 585.8 805.2C579.8 806.8 580.2 807.2 586.6 807.6C593 808 593.8 810.4 591.8 826.8C589.8 846 585.8 877.6 575 966C571.8 992.4 566.2 1036.4 563 1064C559.8 1091.6 556.2 1121.2 555.4 1130C549.8 1175.6 540.2 1232 535 1250.4C522.2 1295.2 529.8 1339.6 552.6 1352C557.4 1354.4 561 1358.4 561 1361.2C561 1368 587 1394 607.8 1408.4C617.4 1415.2 625 1422.8 625 1426C625 1429.2 629.8 1434 635.8 1436.8C641.8 1439.6 649.4 1447.6 652.6 1454C655.8 1460.8 662.6 1471.2 667.8 1477.2C672.6 1483.6 677 1491.6 677 1494.8C677 1498.4 679.4 1504.4 682.6 1507.6C686.6 1512.4 687.4 1522 686.2 1544.8C684.2 1574 683.4 1576.4 671.4 1584C664.6 1588.4 655.4 1594 651 1596.8C647 1599.6 640.2 1606 636.2 1610.8C631.8 1615.6 621.8 1623.6 613 1628.4C604.2 1633.6 597 1640.8 596.2 1645.6C595 1652.8 592.2 1653.6 569 1653.2C554.6 1653.2 533.8 1651.6 522.2 1650C505.8 1647.6 499 1648.4 491.4 1653.6C485.8 1656.8 478.6 1658.8 475.4 1657.6C472.2 1656.4 468.6 1658.4 467.4 1662.8C465 1670.4 455.4 1675.2 425 1684.4C393.8 1693.6 371 1727.2 379 1752C382.6 1763.2 386.2 1762 411.8 1743.2C473.8 1697.6 556.6 1670.4 573 1690C579.4 1697.6 584.6 1697.6 593.8 1689.6C601.8 1682 610.6 1686.4 615.4 1700.8C617.4 1707.2 620.2 1708.4 629.4 1706.4C637 1704.8 641 1706 641 1709.2C641 1712 643.8 1710.8 647 1706.8C651.8 1700 655.8 1699.6 682.2 1702C702.6 1704 713 1703.6 714.6 1700.4C718.2 1694.4 734.2 1694.8 740.2 1700.8C743 1703.6 745 1712.4 745 1720.8C745 1733.2 743 1736.8 736.2 1739.6C731 1741.6 722.6 1748 717 1754C707.8 1763.6 705 1764.4 687 1762C664.6 1759.2 653 1762 653 1770C653 1778.4 640.6 1780.4 627.8 1774C613.4 1766.8 604.6 1768.8 590.6 1782.8C575 1798.4 575.8 1812.4 593 1820.4C618.2 1832.8 641 1838 648.2 1832.8C652.2 1830.4 663 1824.4 673 1820C702.2 1806.4 703 1805.6 704.2 1796.8C705.8 1786 715 1784 734.6 1790.8C743 1793.6 752.6 1796 755.8 1796C759 1796 764.2 1798.8 767.4 1802C771 1805.2 778.2 1808 783.8 1808C795.8 1808 855.8 1833.6 867 1843.6C871.4 1847.6 878.2 1852 882.2 1853.2C885.8 1854.8 891 1860.4 893.8 1866C896.2 1871.6 901 1876 904.2 1876C909 1876 909 1877.2 905 1882C902.2 1885.2 901 1891.6 902.2 1895.6C905 1906.4 893.8 1958.8 884.6 1978.4C880.6 1987.2 877 1997.2 877 2000.4C877 2004 872.6 2010.8 867 2016C861.4 2021.2 857 2028.4 857 2032C857 2035.6 852.6 2042.8 847 2048C841 2054 837 2061.6 837 2068.8C837 2080 831 2096 825 2100C819.4 2104 808.6 2128.4 811 2132C815.4 2138.8 795 2140.4 783 2134.4C776.2 2130.8 768.2 2128 764.6 2128C761 2128 753.4 2122.8 747.4 2116.4C741.4 2109.6 731.4 2098.8 725 2092.4C713 2079.2 699 2076.4 683.8 2084.4C673.4 2090.4 661.4 2104.4 661 2110.8C661 2113.6 657.4 2116 653.4 2116C648.6 2116 645 2120 643 2126.8C636.2 2154.4 611.8 2180 592.6 2180C575 2180 585.4 2201.6 604.6 2206C612.2 2207.6 615.8 2210.4 614.6 2213.6C613.4 2216.8 617 2220.8 624.6 2223.2C631 2225.6 638.2 2230.8 640.6 2235.2C643 2239.6 653 2247.2 663 2252C673 2256.8 681.8 2262.4 683.4 2264.4C684.6 2266.4 689 2268 693.4 2268C697.4 2268 701 2269.6 701 2272C701 2274 705.4 2276 710.2 2276C715.4 2276 723 2279.6 727 2284C731 2288.4 737 2292 740.2 2292C743.4 2292 756.2 2298.4 769 2306C781.8 2313.6 793.8 2320 795.8 2320C797.8 2320 803.8 2324.4 809 2330C814.2 2335.6 821.8 2340 825.8 2340C829.8 2340 833 2342 833 2344.4C833 2346.8 838.2 2353.6 845 2360C855.8 2370 856.6 2373.2 857.4 2402.4C858.6 2435.2 853.4 2452 843 2452C834.6 2452 835.4 2456.8 845.8 2468C859.4 2482.8 873 2503.6 873 2510C873 2513.2 874.2 2516 876.2 2516C877.8 2516 879.4 2522 879.8 2528.8C880.6 2536.8 884.2 2544.4 889.4 2548.4C901 2557.2 903 2593.2 892.2 2602.8C888.2 2606.4 886.2 2610.8 887.4 2612.8C889 2614.8 886.2 2620 881.4 2624.4C876.6 2628.8 873 2634 873 2636.4C873 2644.4 881.4 2656 887 2656C891 2656 893 2660 893 2668C893 2674.8 895.8 2681.2 899.8 2683.2C905.4 2686.8 905.8 2689.2 902.2 2702.4C899.4 2711.2 898.6 2723.2 899.8 2729.2C905.8 2760.4 854.6 2760.4 767 2729.2C663.8 2692.8 559 2621.2 451 2513.2C387.8 2450 351.4 2408.4 339.8 2386C336.2 2379.2 327.8 2367.6 321 2360C314.2 2352.4 301.8 2336 294.2 2324C275.8 2295.6 216.2 2178.8 205 2148.8C197 2127.6 180.2 2090.4 159.8 2048.8C155 2039.2 145 2024.8 137.8 2016.8L124.2 2002L135.8 2018C147 2033.2 185 2108.4 185 2114.8C185 2122 163.4 2085.2 152.2 2058.8C145.8 2042.8 135.8 2024 130.2 2016.8C125 2009.6 119.8 2000.4 119 1996C117 1984.8 113 1979.6 108.6 1982C106.6 1983.2 106.2 1982 107.4 1978.8C108.2 1976 105.4 1968.8 100.6 1963.6L92.2001 1954L99.0001 1966L105.4 1978L97.4001 1968.4C92.6002 1963.6 90.2001 1957.6 91.4001 1955.6C92.6002 1953.6 89.8002 1945.6 85.0001 1938C75.4001 1922.8 71.8002 1920 75.4001 1930.8C77.4001 1936.4 77.0001 1936.8 73.8002 1932.4C71.4001 1929.2 70.6002 1924 72.2001 1920.8C73.8002 1916.4 72.6002 1915.6 69.0001 1918C65.8002 1920 64.6002 1919.6 66.2001 1917.2C70.2001 1910.8 53.4001 1875.2 48.2001 1878.4C45.8002 1880 45.0001 1879.6 46.6002 1876.8C49.8002 1871.2 37.4001 1839.2 32.6002 1842.4C30.6002 1843.6 30.2001 1841.6 31.4001 1838.4C32.6002 1835.2 30.6002 1826.8 26.6002 1820.4C20.2001 1809.2 17.0001 1808 0.600159 1808C-32.5999 1808 -46.5999 1787.2 -48.9998 1736C-49.3998 1724 -50.5999 1711.2 -51.7999 1708C-52.9998 1704.8 -52.9998 1703.2 -52.1998 1704.8C-47.3998 1713.2 -44.1998 1706.4 -47.3998 1695.2C-51.7999 1679.2 -51.7999 1672.4 -47.7999 1679.2C-45.3998 1682.8 -42.9998 1681.6 -38.9998 1674.4C-34.5999 1665.6 -34.5999 1662.8 -40.5999 1654.4C-44.1998 1648.8 -46.9998 1641.2 -47.3998 1637.2C-47.3998 1630.8 -47.7999 1630.8 -50.9998 1638C-52.9998 1642.4 -54.5999 1644 -54.5999 1641.2C-54.9998 1633.2 -50.1998 1624 -46.9998 1626C-32.9998 1634.8 -44.9998 1580.8 -67.3998 1535.2C-69.3998 1531.2 -70.9998 1522 -70.9998 1514.4C-70.9998 1506 -74.5999 1496.4 -80.5999 1489.2C-85.3998 1483.2 -88.9998 1476 -88.5999 1474C-87.7999 1471.6 -92.1998 1466.4 -98.9998 1462C-105.4 1457.6 -111 1450 -111.8 1444.4C-112.6 1439.2 -115.4 1434 -118.2 1432.8C-122.2 1431.6 -123 1435.6 -122.2 1448.4C-121.4 1460 -123 1467.6 -126.6 1470.4C-134.2 1476.4 -128.6 1484 -116.6 1484C-111.4 1484 -107 1485.6 -107 1488C-107 1490 -112.2 1492 -119 1492C-125.4 1492 -131 1493.6 -131 1496C-131 1498 -133.4 1498.8 -136.6 1497.6C-143.4 1495.2 -147.8 1514.8 -142.6 1524.8C-134.6 1539.6 -151.4 1550 -161.8 1536.4C-165.8 1531.2 -166.6 1533.6 -167 1550.8C-167 1574.8 -175 1579.6 -183.8 1561.2C-190.2 1547.6 -199 1544.4 -199 1555.6C-199 1560.4 -197 1564 -194.6 1564C-191.8 1564 -191.4 1569.2 -193 1579.6C-194.2 1588 -193.4 1606 -191 1620C-187.8 1638.8 -187.8 1646 -191.4 1650.4C-198.6 1659.2 -201 1657.2 -206.2 1634.8C-209 1623.6 -214.6 1609.2 -219 1603.2C-224.6 1595.6 -226.2 1588.8 -224.6 1582.4C-221.4 1569.2 -226.2 1554.8 -233 1557.6C-236.2 1558.8 -244.2 1557.2 -251 1554.8C-262.2 1550.8 -264.2 1550.8 -269 1557.6C-274.2 1564.4 -275 1564.4 -281 1558.4C-284.6 1554.8 -289 1552 -291 1552C-293 1552 -297 1549.2 -300.6 1546C-308.2 1538 -319.8 1542.4 -317 1552C-315.8 1556 -316.6 1560.4 -319 1562C-321 1563.2 -323 1569.6 -323 1576C-323 1585.6 -326.2 1590 -339 1598C-347.8 1603.6 -355 1610.4 -355 1613.6C-355 1616.4 -358.6 1623.6 -363 1629.2C-373.4 1642.4 -373 1643.2 -360.2 1644.8C-341.4 1646.8 -344.2 1658 -365.8 1665.6C-376.2 1669.6 -389.8 1675.2 -395.4 1678C-404.6 1682.8 -407.8 1682.4 -426.2 1673.6C-437.4 1668.4 -447.8 1662 -449 1660C-452.2 1654.8 -439.4 1654.8 -424.2 1660.4C-408.6 1665.6 -385.4 1660 -383.8 1650.8C-382.6 1645.2 -385.4 1644 -397.8 1644C-406.2 1644 -415.8 1642 -419 1640C-424.2 1636.4 -423.8 1635.2 -417.4 1630C-413 1626.8 -406.6 1624 -402.6 1624C-399 1624 -393 1620 -389.4 1615.2C-383.4 1606.8 -382.6 1606.8 -384.6 1614L-387 1622L-381 1614C-365.8 1594 -360.6 1588.4 -355.8 1588C-353.4 1588 -351 1584.4 -351 1580C-351 1575.6 -348.6 1572 -345.4 1572C-342.2 1572 -338.6 1570.4 -337.4 1568.4C-333.8 1562.8 -339 1552 -345.4 1552C-348.6 1552 -353 1547.6 -355 1542C-359.4 1530.8 -365 1529.2 -368.2 1537.6C-369.4 1540.8 -377 1544.8 -384.6 1546C-392.2 1547.6 -399.4 1551.2 -400.6 1554.4C-403.4 1561.2 -415 1562 -415 1554.8C-415 1552.4 -412.2 1546.8 -409.4 1542.8C-404.6 1536.8 -404.6 1532.4 -408.6 1518.8C-412.6 1504 -415 1502 -426.2 1500.8C-436.6 1499.6 -439 1497.6 -439 1490.4C-439 1485.6 -437.4 1480 -435 1477.6C-433 1475.6 -432.6 1466 -434.6 1454L-438.2 1434L-438.6 1450C-439.4 1472 -446.2 1460.4 -446.2 1437.2C-446.2 1422.8 -445 1420 -438.6 1420C-433.8 1420 -431 1422.8 -431 1428C-431 1432.4 -429 1436 -426.6 1436C-424.2 1436 -423.4 1433.2 -424.6 1429.6C-425.8 1426 -427 1422.8 -427 1422C-427 1417.6 -455.4 1408 -471 1407.2L-489 1406L-475.8 1399.6C-464.6 1394 -463.4 1392.4 -469 1388C-475.4 1382.8 -477.8 1370 -471.4 1373.6C-469.4 1374.8 -466.6 1373.2 -465.4 1369.6C-461.8 1360.4 -462.2 1360 -470.2 1360C-480.6 1360 -487.8 1340.4 -483 1324C-479.4 1311.2 -479.8 1310.8 -485 1317.6C-488.2 1322 -491 1326.8 -491 1328.8C-491 1330.4 -493.8 1332 -497.4 1332C-501 1332 -506.2 1334.8 -509 1338.8C-513.8 1345.2 -525 1342.4 -521 1335.6C-519.4 1333.6 -523 1333.6 -529 1336C-542.6 1341.2 -543 1341.2 -543 1334.4C-543 1328.8 -565.4 1321.2 -569.8 1325.6C-574.2 1330 -567 1340 -559.4 1340C-553.8 1340 -551 1343.6 -549 1352.8C-547.4 1360 -544.2 1367.2 -541.4 1368.8C-536.2 1372 -534.6 1396 -539.4 1396C-541.4 1396 -543 1393.6 -543 1390.8C-543 1387.2 -547 1386 -555 1387.2C-567.8 1389.2 -571 1394.8 -561 1398.4C-550.6 1402.4 -554.2 1408 -567 1408C-578.2 1408 -579 1407.2 -574.6 1399.6C-571.4 1393.6 -571.4 1390 -574.6 1386.8C-577.8 1383.6 -579 1384 -579 1388C-579 1392 -581 1391.6 -586.6 1386.4C-590.6 1382.8 -595.4 1380 -597.4 1380.4C-607.4 1382 -611 1378.8 -611 1368.4C-611 1362 -608.6 1356 -605 1354.4C-597.4 1351.6 -597 1340 -605 1340C-608.2 1340 -612.6 1336.4 -615 1332C-620.2 1322.4 -629.4 1321.6 -632.6 1330.4C-635.8 1339.2 -635.8 1340 -629.4 1340C-621.8 1340 -612.6 1352 -617.4 1355.2C-619.4 1356.8 -623.4 1361.2 -626.2 1364.8C-633.4 1374 -625.8 1389.2 -615.4 1386C-611.4 1384.8 -605.8 1386.4 -603 1390C-600.2 1393.2 -595.8 1396 -593.4 1396C-590.2 1396 -589 1400.4 -590.2 1407.6C-591.4 1416.4 -589.8 1420.4 -583.8 1423.6C-577.4 1427.2 -575.4 1426.4 -573.8 1420C-571 1409.6 -561 1410 -551 1420C-542.6 1428.4 -540.6 1436 -547 1436C-549 1436 -549.8 1439.2 -548.6 1442.8C-547.4 1447.2 -550.6 1444.8 -556.6 1438C-565.4 1428 -567 1427.2 -569.4 1433.2C-570.6 1436.8 -571 1442.8 -569.4 1446C-568.2 1449.2 -569 1452 -571.4 1452C-573.8 1452 -574.2 1454 -573 1456C-571.4 1458.4 -572.6 1462.8 -575 1466.4C-578.2 1470 -579 1477.6 -577.8 1486.8C-575.4 1501.2 -583.4 1526.4 -592.6 1533.2C-595.4 1535.2 -594.6 1538 -590.2 1541.6C-580.2 1548.8 -580.6 1564 -590.6 1564C-599.4 1564 -603.8 1555.2 -600.2 1545.2C-598.6 1540.8 -599 1539.6 -602.2 1541.6C-605 1543.2 -607 1542.4 -607 1540C-607 1537.6 -609.8 1531.2 -613.8 1525.6C-618.6 1518 -621 1516.8 -623.4 1520.8C-625.4 1523.6 -627 1528.8 -627 1532C-627 1536.8 -626.2 1537.2 -623.4 1532.4C-621 1528.8 -619 1536.8 -617 1555.6C-615.4 1571.6 -615 1585.2 -616.2 1586.4C-620.6 1590.8 -629.8 1564.4 -627.8 1552.4C-626.2 1542 -627.4 1540 -634.6 1540C-639 1540 -643 1537.6 -643 1534.8C-643.4 1532.4 -646.2 1524.4 -649.4 1518C-652.6 1511.2 -654.2 1509.2 -653 1512.8C-651 1520.8 -657.4 1522.8 -660.2 1514.8C-661.4 1512.4 -662.6 1514 -662.6 1519.2C-663 1531.2 -677.8 1559.6 -685 1562.4C-687.8 1563.6 -689.4 1567.2 -688.2 1570.4C-687 1573.2 -689 1576.8 -692.2 1578.4C-697.4 1580.4 -697.4 1582.4 -690.2 1594.4C-685.8 1602 -683 1609.6 -684.6 1610.8C-685.8 1612 -685 1615.6 -682.6 1618.8C-679 1622.8 -679.4 1624 -683 1624C-685.8 1624 -687 1626.4 -685.8 1628.8C-685 1631.6 -685.4 1637.6 -687 1642C-688.6 1646.8 -686.6 1659.2 -682.6 1671.6C-674.2 1695.6 -673.4 1700.8 -679 1692C-684.6 1683.2 -687.4 1689.2 -684.6 1703.2C-683 1710.4 -679.8 1716 -677 1716C-674.2 1716 -671 1720 -669.4 1725.2C-668.2 1730.4 -662.6 1739.6 -657 1745.6L-646.6 1756.8L-638.6 1746C-630.6 1736.4 -629.8 1736 -624.6 1742.8C-619.4 1749.6 -619.4 1749.6 -618.6 1742C-618.6 1736.8 -617 1738.4 -614.6 1746.8C-612.6 1754 -609 1760 -607 1760C-604.6 1760 -603 1761.6 -603 1764C-603 1766 -605.8 1766.8 -609 1765.6C-616.6 1762.4 -616.6 1766.8 -609.4 1774C-602.2 1781.2 -599 1777.6 -599 1762.8C-599 1756 -597.8 1752 -596.6 1753.2C-595 1754.4 -590.6 1754 -586.6 1751.6C-581 1748.8 -579 1749.2 -579 1752.4C-579 1755.2 -575 1756 -569 1754.8C-557.4 1752.8 -549 1763.6 -553 1775.6C-554.2 1779.6 -551.8 1787.2 -547 1793.2C-537.8 1804.8 -537 1810.4 -543.8 1813.2C-547.8 1814.8 -547.8 1815.6 -543.8 1815.6C-541.4 1816 -539 1818.8 -539 1822C-539 1829.2 -532.2 1830 -529.8 1822.8C-529 1820.4 -528.6 1825.6 -529.4 1835.2C-529.8 1844.4 -529 1852 -527.4 1852C-523.8 1852 -513 1839.2 -509.8 1830.8C-506.2 1820.8 -499 1822.4 -499 1833.2C-499 1838.4 -497.4 1844 -495 1846.4C-493 1848.4 -490.6 1856.8 -490.2 1865.2C-489.4 1875.2 -486.6 1880.8 -481.8 1882.4C-473.8 1884.8 -472.2 1903.6 -479.8 1911.2C-483 1914.4 -481.8 1917.6 -474.6 1923.6C-466.2 1930.4 -464.6 1930.8 -462.6 1924.8C-461 1920 -459 1922 -455 1932.4C-451.8 1939.6 -449.4 1949.2 -449 1952.8C-448.6 1962 -442.2 1962.4 -437 1954C-434.2 1949.6 -434.6 1946.8 -438.2 1944.8C-444.6 1940.4 -440.2 1916 -432.2 1913.2C-427.8 1911.6 -427 1907.2 -429 1897.2C-430.2 1890 -430.2 1882 -429 1879.6C-424.6 1873.2 -415 1883.6 -415 1894.4C-415 1909.2 -407.8 1905.6 -406.2 1890L-405 1876.4L-395 1884C-387.8 1889.6 -386.6 1892.4 -389.8 1896.8C-396.2 1904.8 -399.8 1932.8 -395.8 1944C-392.6 1952.8 -392.2 1952 -389.4 1936.8C-386.6 1916.8 -375 1904 -361 1904C-350.6 1904 -347.4 1910 -356.2 1913.2C-358.6 1914.4 -355 1915.6 -347.8 1915.6C-339.8 1916 -335 1918 -335 1921.6C-335 1929.6 -346.2 1932.8 -355.8 1927.6C-362.6 1924 -365 1924.4 -368.6 1930.4C-377.8 1946.4 -379 1958 -372.2 1962.8C-364.6 1968.4 -355 1963.2 -355 1953.2C-355 1950 -353.4 1948.4 -351.4 1949.6C-349.4 1950.8 -349.4 1958 -351 1965.6C-352.6 1973.2 -353 1980.4 -351.8 1981.6C-347 1986.4 -335.8 1983.6 -329 1976C-323 1969.2 -322.6 1968 -327.8 1970C-331.4 1971.6 -335.4 1970.8 -337 1968.4C-341 1961.6 -320.2 1961.6 -313 1968.4C-310.6 1970.8 -312.6 1974.4 -317.8 1978C-323.4 1982 -325.4 1986.8 -324.2 1992C-321 2003.2 -317.4 2002 -311.8 1987.2C-305.4 1969.6 -297 1977.2 -303.4 1995.2C-306.2 2004 -309.4 2006.8 -314.2 2005.2C-319 2004 -318.6 2005.2 -312.6 2010.8C-307.8 2014.8 -302.6 2022.4 -301 2027.6L-298.2 2037.2L-307 2028.8C-314.2 2022 -317.4 2021.2 -323.4 2025.2C-333.4 2031.2 -333 2034 -321 2043.2C-314.2 2048.8 -312.6 2052 -315.8 2053.2C-323 2056.4 -308.2 2068 -300.6 2065.2C-293.4 2062.4 -288.2 2075.6 -294.6 2080C-298.6 2082 -298.6 2086.8 -295.8 2097.6C-293.4 2106 -293 2112 -295.4 2112C-297.4 2112 -299 2109.6 -299 2106.4C-299 2103.2 -301.8 2099.6 -305.4 2098.4C-311 2096.4 -311.8 2098 -309.8 2111.6C-308.2 2124 -309 2126.8 -313.4 2125.2C-317.4 2123.6 -318.2 2125.2 -316.2 2130C-314.2 2136 -315.4 2136.8 -322.2 2135.2C-332.6 2132.4 -339 2141.6 -339 2158C-339 2163.6 -340.6 2167.6 -342.2 2166.4C-344.2 2165.2 -345.8 2167.2 -345.8 2170.4C-345.8 2173.6 -343.4 2175.6 -340.6 2174.4C-337.4 2173.2 -334.2 2174 -332.6 2176.4C-329.4 2182 -339.4 2192.8 -345.8 2190.4C-352.6 2187.6 -352.6 2191.2 -345.8 2198C-341.4 2202 -341 2207.6 -344.6 2223.6C-349.4 2247.6 -356.2 2248 -359.4 2224.4C-361.4 2208.8 -371 2191.6 -371 2203.2C-371 2206 -379.4 2216.4 -389.8 2226.4C-407 2243.6 -408.2 2245.6 -404.2 2256.4C-397.8 2273.6 -405 2271.2 -425.4 2249.6C-435 2239.6 -443 2234 -443 2236.8C-443 2240 -449.4 2249.2 -457 2257.6C-464.6 2266 -471 2275.6 -471 2278.4C-471 2282.4 -474.6 2283.2 -483 2281.2C-493.4 2279.2 -495 2280 -495 2287.6C-495 2292 -497.4 2296 -500.6 2296C-503.8 2296 -509 2297.2 -512.2 2298.4C-515.4 2299.6 -521 2297.6 -524.2 2294C-530.2 2288.4 -531 2288.4 -535 2296C-537.4 2300.4 -541 2304 -543.4 2304C-545.4 2304 -551.8 2308.8 -557.4 2314.8C-566.2 2324.4 -566.6 2326 -561 2332C-555.4 2338 -555.8 2340 -563 2349.2C-567.8 2355.2 -570.2 2361.6 -569 2364C-567.8 2366 -570.2 2368 -574.6 2368C-579.4 2368 -583 2369.6 -583 2372C-583 2378 -599.8 2396 -603 2394C-604.6 2392.8 -611.4 2398 -617.4 2405.6C-623.8 2412.8 -633 2420 -637.8 2421.6C-647.4 2424.8 -653.8 2418 -647.8 2410.8C-641.8 2403.6 -643 2384.8 -649.8 2382.4C-653 2381.2 -654.2 2382 -653 2384C-651.8 2386.4 -652.2 2388 -654.6 2388C-656.6 2388 -659 2385.6 -660.2 2382.8C-661.4 2380 -663 2380.8 -665 2386C-675 2414.8 -676.2 2416 -686.6 2416C-702.2 2416 -711.8 2434.8 -706.6 2454.4C-704.2 2462 -703.4 2471.2 -704.6 2474C-706.2 2478.4 -703 2478 -688.6 2473.2C-679 2470 -671 2465.6 -671 2463.6C-671 2461.6 -668.6 2460 -665.8 2460C-663 2460 -654.6 2454.8 -647 2448C-639.4 2441.6 -631.4 2436.4 -629.4 2436C-627.4 2436 -618.6 2430 -609.4 2422.8C-595 2410.8 -560.6 2392 -554.2 2392C-549.4 2392 -509 2366 -505.8 2361.2C-501.4 2354 -467 2336 -457.4 2336C-452.6 2336 -446.6 2332.4 -443.8 2328C-441 2323.6 -437 2320 -434.6 2320C-432.6 2320 -431.8 2321.6 -433 2324C-436.2 2329.2 -429 2329.2 -419.8 2324.4C-416.2 2322.4 -409.8 2319.6 -405.4 2318.4C-399.8 2316.4 -399 2314.8 -402.6 2310.8C-407.4 2304.8 -397.4 2294 -378.2 2284.4C-372.2 2281.2 -356.6 2267.2 -343 2253.6C-329.8 2239.6 -317.4 2228 -315.4 2228C-313.4 2228 -310.6 2215.2 -309.4 2199.6C-306.2 2170.4 -297 2154 -285.4 2158.4C-282.2 2159.6 -278.6 2158.8 -277 2156.4C-275.8 2154 -276.2 2152 -278.6 2152C-285.8 2152 -279 2142 -268.6 2137.2C-260.2 2133.2 -258.6 2133.6 -260.2 2137.6C-261.8 2141.6 -259.8 2142.4 -254.6 2141.2C-249.8 2140 -247.4 2136.8 -248.6 2133.6C-251 2127.6 -226.6 2121.2 -219 2126C-216.2 2127.6 -208.6 2123.6 -201.4 2116.4C-189 2104.4 -189 2103.6 -189.8 2070.4C-190.2 2051.6 -191.8 2031.6 -193.4 2025.2C-196.2 2015.2 -195.8 2014.4 -189.8 2019.2C-181 2026.4 -173.8 2021.2 -176.2 2009.6C-177.4 2003.2 -176.2 2000 -172.6 2000C-169.8 2000 -164.6 1994.4 -161 1988C-152.6 1972 -147 1972.8 -147 1990C-147 2011.2 -137.4 2012 -119.4 1992.4C-111 1983.6 -102.2 1976 -99.7999 1976C-96.9998 1976 -94.9998 1973.6 -94.9998 1970.8C-94.5999 1961.6 -72.1998 1944 -51.3998 1936.4C-40.1998 1932.4 -29.7999 1928 -28.1998 1926.8C-24.1998 1922.4 -17.7999 1923.6 -9.39984 1930C-3.39984 1934.8 -1.79987 1940.8 -1.79987 1960C-1.79987 1981.2 -0.999817 1984 5.80017 1984C11.8002 1984 13.0001 1985.6 11.0001 1990.8C4.20013 2009.2 3.80017 2020 10.6002 2020C14.6002 2020 17.0001 2017.2 16.2001 2013.2C15.4001 2008 17.8002 2006 27.0001 2005.6C33.8002 2005.2 42.2001 2004.8 46.2001 2004.4C49.8002 2004 52.6002 2002 52.2001 1999.6C51.4001 1997.2 55.8002 1993.2 61.8002 1991.2C70.6002 1988 75.4001 1989.2 84.6002 1995.6C91.0001 2000.4 99.0001 2004 102.6 2004C110.2 2004 121.4 2021.6 144.6 2070C166.2 2114.4 213.8 2200 230.6 2224C237.8 2234 246.6 2249.2 250.6 2258C255 2266.8 262.6 2280.8 267.8 2289.2C273 2297.6 287 2324 299 2348C311 2372 323 2392.8 325 2394C327.4 2395.6 349.8 2427.6 375 2465.2C400.2 2503.2 434.6 2552.8 451 2576C467.8 2599.2 489.4 2629.6 499 2644C509 2658.4 528.2 2685.6 542.2 2705.2C597 2782 631 2843.2 627 2856.4C625.4 2861.2 625.8 2866 627.8 2867.6C629.8 2868.8 635.4 2878 640.2 2888C651.4 2911.6 658.6 2987.6 653 3022C649 3047.2 651 3062 657.4 3057.6C660.2 3056 660.2 3060.8 658.2 3070.8C656.6 3079.2 655.4 3097.6 655.8 3111.6C656.6 3125.6 655.8 3136.4 654.6 3135.2C651 3131.6 641.8 3056.4 641.4 3026C641 3010.4 639 2987.6 636.2 2974.8C631.8 2952 631.8 2951.6 619.4 2952.8L607 2954L601.4 3006.8C598.2 3036 596.6 3060.8 598.2 3062.4C599.4 3063.6 605.4 3065.2 611 3065.6C621.4 3066 621.4 3066.8 620.2 3088C619.8 3100 620.2 3112 621.8 3114.4C623.4 3116.8 622.2 3123.2 619 3129.2C613.8 3139.2 614.6 3141.6 622.2 3140.4C624.2 3140 625 3162.4 624.2 3190L623 3240.4L632.2 3238.8C637 3238 642.2 3238.8 643.4 3240.4C647 3246.4 681 3244.8 683.4 3238.4C686.6 3229.6 695.4 3228 709 3232.4C716.6 3235.2 720.6 3239.2 720.2 3243.2C719 3249.6 731 3254.8 748.6 3255.6C755.4 3256 757.4 3254.4 755.4 3250C753.8 3245.6 755.8 3244 762.2 3244C777.8 3244 788.2 3248.4 790.2 3256C791.4 3261.2 797 3263.6 811.4 3264.8C837 3267.2 843.4 3263.6 846.2 3245.2C848.2 3233.6 846.2 3225.6 838.2 3209.2L827.4 3188.4L834.6 3165.2C838.6 3152.8 845.8 3136 851 3128C861.4 3111.6 877 3096.8 877 3103.2C877 3106 879.8 3108 883 3108C888.2 3108 889 3102 888.6 3072.8C888.2 3032 891.8 3022.8 921.8 2990C934.2 2976.4 941 2965.6 939.4 2962C936.6 2954 927.4 2954.4 920.6 2962.8C913.4 2971.2 885 2992 880.2 2992C878.2 2992 882.2 2981.6 889.4 2968.8C896.6 2956.4 904.2 2942.4 906.6 2938C913 2926.4 925.8 2912 929.8 2912C935.8 2912 943 2902.8 951 2885.2C957 2872 961.8 2867.2 975.8 2862C985.4 2858 995.4 2851.6 998.2 2847.6C1000.6 2843.6 1005.8 2840 1009.8 2840C1017.8 2840 1024.2 2831.2 1017.8 2828.8C1009.8 2826.4 1016.6 2820 1027.4 2820C1039.8 2820 1052.2 2808.8 1054.2 2795.6C1055 2790 1059 2785.6 1063.4 2784.4C1067.4 2783.6 1073 2781.6 1075.4 2779.6C1082.6 2773.6 1117.8 2764 1122.2 2766.8C1124.6 2768 1128.2 2766.4 1130.6 2763.2C1136.6 2755.2 1146.2 2750.4 1185.4 2736.8C1203.8 2730 1222.2 2723.6 1226.2 2722C1231.4 2720 1233 2721.2 1233 2727.6C1233 2732.4 1230.6 2736 1226.6 2736C1223.4 2736 1213 2741.2 1203.8 2747.2C1194.6 2753.6 1174.6 2764.4 1159.4 2772C1144.2 2779.6 1131 2788.4 1130.2 2792.4C1129 2796 1121.4 2801.2 1112.6 2804C1091.4 2811.2 1065.4 2833.6 1071.4 2840C1074.6 2843.2 1089 2840.4 1127.4 2827.6C1155.4 2818.4 1180.6 2810.8 1182.6 2810.4C1185 2810 1190.6 2807.6 1195 2805.2C1199.4 2802.8 1220.2 2795.2 1241 2788C1269.8 2778 1286.2 2774.8 1309.8 2774.4C1327 2774.4 1337.8 2772.8 1333.8 2771.6C1326.6 2769.2 1363 2761.6 1401 2758C1455.8 2753.2 1480.6 2752.8 1508.6 2756.8C1525.4 2759.2 1543 2761.2 1548.2 2761.6C1557.4 2762 1558.6 2763.6 1555 2772.8C1553.4 2776.4 1548.6 2778 1541.8 2777.2C1529.4 2775.6 1519.4 2782.4 1515.4 2794.4C1513.4 2800.8 1514.6 2803.6 1521 2805.2C1531.4 2808 1531.4 2820 1521 2820C1510.6 2820 1510.6 2824.8 1521 2831.2C1530.2 2836.8 1537 2834.4 1537 2825.6C1537 2822 1539.4 2820 1542.2 2821.2C1544.6 2822 1546.6 2825.6 1545.8 2829.6C1545 2833.2 1546.2 2836 1548.2 2836C1550.2 2836 1556.2 2840 1561.8 2845.2C1571 2854 1573.8 2854.4 1604.6 2851.6C1634.6 2849.2 1646.2 2846 1671 2836C1675.4 2834 1692.6 2829.6 1709 2826C1742.2 2818.8 1808.2 2796.8 1811.4 2791.6C1812.6 2789.6 1815 2788 1817 2788C1823 2788 1803.4 2806.8 1794.6 2809.6C1789.8 2811.2 1781.8 2815.6 1777 2820C1771.8 2824.4 1762.6 2828 1756.6 2828C1749 2828 1744.6 2830.4 1743 2836.4C1741 2842 1737.4 2844 1731.4 2843.2C1726.6 2842.8 1717.4 2846 1711 2850.4C1704.2 2854.8 1691 2860.8 1681 2863.6C1671 2866.4 1661.4 2870.4 1659 2872C1645.8 2882.4 1543 2896.4 1513.8 2891.6C1503 2890 1450.2 2887.6 1396.6 2886C1343 2884.4 1288.2 2882 1275 2880.8C1253 2878 1047.8 2882 1025 2885.2C1017.8 2886.4 1014.6 2890 1012.6 2898.4C1011.4 2904.8 1009.4 2912.8 1008.6 2916C1006.2 2924.4 1022.2 2925.6 1036.6 2918.4C1046.2 2913.2 1063.8 2912 1127 2912C1195.8 2912 1205.4 2912.8 1207.8 2918.4C1209 2922 1208.2 2928 1205.8 2931.6C1197 2943.6 1191.8 2956 1194.2 2958.8C1195.8 2960 1204.6 2953.2 1213.8 2943.2C1228.6 2927.6 1233.8 2924.4 1251 2922.4C1271 2920 1286.6 2920.8 1313.8 2926C1327.4 2928.4 1328.2 2929.6 1324.2 2937.6C1321 2945.2 1317 2946.8 1299.8 2946.8C1288.2 2946.8 1282.2 2946 1286.2 2945.2C1295.4 2942.8 1295 2936 1285.4 2936C1281.4 2936 1273 2933.2 1266.6 2930C1256.6 2924.8 1254.6 2924.8 1248.2 2930.8C1238.2 2939.6 1239 2942.8 1253.4 2951.6C1264.2 2958 1264.6 2959.6 1259.4 2964.8C1255.8 2968.4 1249.4 2970 1243.4 2969.2C1235 2967.6 1233 2968.8 1233 2975.6C1233 2980 1235 2984 1237.8 2984C1240.2 2984 1237.8 2989.2 1231.8 2995.2C1225.8 3001.2 1221 3009.6 1221 3013.2C1221 3017.6 1217.8 3020 1211.4 3020C1205.4 3020 1200.6 3022.8 1199 3027.6C1196.6 3036 1200.2 3048 1205.8 3048C1207.8 3048 1205.8 3052.8 1201.4 3058.4C1196.6 3064.4 1193 3071.2 1193 3074.4C1193 3077.2 1186.2 3082.8 1178.2 3086.8C1170.2 3090.8 1162.6 3096.4 1161.8 3098.8C1159 3108.4 1172.2 3104 1190.6 3090C1201 3082.4 1209.8 3076 1211 3076C1212.2 3076 1213 3080.8 1213 3086.4C1213 3094.4 1214.6 3096.4 1220.2 3095.2C1226.6 3093.6 1242.2 3105.2 1238.6 3109.2C1237.4 3110 1239 3116 1241.8 3122C1246.2 3131.6 1245.8 3133.6 1237 3140C1229 3146 1228.2 3148.4 1231.8 3152.4C1235.8 3156.4 1239 3155.6 1247 3148C1254.6 3140.8 1256.6 3140 1254.6 3145.2C1251 3155.2 1263.8 3154 1269 3143.6C1271.8 3138.4 1275.8 3136.4 1279.8 3137.6C1283.4 3139.2 1288.2 3138.8 1290.6 3136.8C1298.6 3131.2 1323 3124.4 1331 3125.6C1336.2 3126.4 1339.8 3130.8 1341 3138.4L1343.4 3150L1354.2 3138.4C1365 3126.8 1368.6 3130 1360.6 3144.8C1358.2 3149.2 1357.4 3153.6 1358.2 3154.8C1361 3157.2 1377 3148.4 1376.6 3144.8C1374.6 3133.2 1378.2 3128.8 1390.6 3126.4C1398.2 3124.8 1406.2 3121.2 1409 3118C1411.4 3115.2 1415.8 3113.2 1419 3114.4C1421.8 3115.6 1425.4 3114.8 1427 3112.4C1428.2 3110 1432.6 3108 1436.6 3108C1440.6 3108 1446.2 3105.2 1449 3102C1451.8 3098.8 1455.4 3096.8 1457 3098C1464.2 3102.4 1481.4 3091.6 1485.4 3080C1490.2 3066.4 1495.8 3064.8 1503.4 3074.8C1510.6 3084.4 1510.2 3088 1502.6 3088C1499.4 3088 1494.6 3093.2 1492.6 3099.6C1489.8 3107.2 1484.2 3112.8 1476.6 3115.6C1470.2 3117.6 1465 3122 1465 3124.8C1465 3128.4 1455.8 3132.4 1440.2 3135.6C1407.8 3142 1401 3146 1401 3158C1401 3163.2 1399.4 3168.4 1397.4 3169.6C1395.4 3170.8 1386.2 3187.6 1377 3206.8C1367.4 3226.4 1354.6 3249.6 1348.6 3258.8C1339.4 3271.6 1337 3279.6 1337.4 3294.8C1337.8 3310.4 1338.6 3312 1341 3304C1344.2 3294.4 1344.2 3294.4 1344.6 3303.2C1345 3308 1342.2 3318.8 1339 3326.8C1332.2 3342.8 1331 3356 1336.6 3356C1346.2 3356 1361 3347.6 1361 3342C1361 3338.8 1363 3336 1365.4 3336C1368.2 3336 1368.6 3340.4 1367 3348C1364.6 3359.2 1365 3360 1376.6 3360C1383.4 3360 1396.2 3364.8 1405 3370.4C1421.4 3381.2 1435.8 3380.8 1431.4 3370C1430.2 3366.8 1430.2 3358.4 1431.8 3352C1433.4 3342.4 1435 3340.8 1439.4 3344.4C1443 3347.2 1443.4 3351.2 1441 3358.4C1438.2 3365.6 1438.6 3368.8 1442.2 3369.6C1477 3378.8 1479.8 3378.8 1488.6 3368.8C1493 3363.6 1497 3355.2 1497 3350C1497 3344.8 1499.8 3340 1504.2 3339.2C1508.2 3338 1517.8 3324 1526.6 3305.6C1535 3288.4 1544.2 3268.8 1547.4 3262.8C1550.6 3256.4 1553 3248.8 1553 3245.2C1553 3241.2 1556.2 3240 1564.2 3240.8C1573.8 3242 1575 3240.4 1576.2 3229.6C1577.4 3219.2 1579.4 3216.4 1589.4 3214.4C1597.4 3212.8 1601 3210 1601 3204.8C1601 3200.4 1604.6 3192.8 1608.6 3187.2C1613 3182 1617.8 3172.8 1619 3167.2C1621 3159.2 1623.8 3157.2 1633.4 3157.6C1643.4 3158 1645 3159.6 1643.8 3168C1642.6 3182.4 1657.4 3184 1665 3170C1669.4 3161.6 1669.8 3158 1665.8 3152C1660.2 3143.2 1659.4 3128 1664.2 3128C1666.2 3128 1671 3130.8 1675.4 3134C1685.8 3141.6 1687.8 3141.6 1690.2 3131.6C1692.2 3124.8 1693.8 3124 1700.2 3127.6C1706.2 3130.8 1709.4 3130.4 1713 3126C1715.4 3122.8 1716.6 3118.4 1715 3116C1709.8 3107.6 1724.6 3107.6 1733 3116C1741.4 3124.4 1741.4 3124.4 1733.8 3137.2C1721 3158.4 1719.4 3167.6 1728.2 3171.2C1735.8 3174 1735.8 3174.8 1724.2 3200C1715.4 3218.8 1713.4 3227.6 1716.2 3232.4C1719 3236.8 1717 3246 1708.2 3265.6C1696.2 3292.8 1695.8 3305.6 1706.6 3301.6C1711.8 3299.6 1711.8 3300.8 1707.8 3309.6C1704.6 3316.8 1701 3319.2 1696.2 3317.6C1692.2 3316.4 1689 3317.2 1689 3319.6C1689 3322 1686.2 3322.8 1682.6 3321.2C1678.2 3319.6 1676.6 3320.4 1677.8 3324.4C1678.6 3327.2 1676.6 3338 1673 3348C1668.2 3360.8 1664.6 3365.6 1659.8 3364.8C1652.6 3363.6 1650.6 3370 1657 3374C1659.4 3375.2 1661 3380 1661 3384.4C1661 3388.4 1662.6 3392 1664.6 3392C1666.6 3392 1669 3395.2 1670.2 3399.6C1671.4 3405.2 1679.8 3408.4 1707.4 3413.6C1737 3419.2 1763 3420 1858.6 3419.2L1974.2 3418L1977.8 3406C1981.8 3392.8 1989.8 3375.2 1993 3372C1995.8 3369.6 2006.2 3347.2 2007 3342C2007.4 3339.6 2008.2 3337.2 2008.6 3336C2009 3334.8 2010.6 3329.6 2011.4 3324.4C2012.2 3318.8 2016.2 3311.2 2019.8 3307.2C2023.4 3303.2 2026.2 3294 2025.8 3286.8C2025.8 3280 2027.4 3270 2029.8 3265.2C2032.6 3259.2 2033 3251.6 2030.2 3240.8C2027 3229.2 2027.4 3222.8 2031.4 3215.6C2034.2 3210.4 2035.8 3202.8 2035 3198.8C2033.8 3195.2 2031.8 3188.4 2030.6 3184C2028.6 3177.2 2030.2 3176 2042.6 3176H2057V1282V-612L968.2 -611.2C3.40009 -610 -121 -609.2 -121.4 -604C-121.8 -600.8 -122.2 -594 -122.6 -589.2C-122.6 -584 -125 -580 -127.4 -580C-130.2 -580 -131 -584.4 -129.8 -592C-127.8 -601.2 -129 -604.8 -135 -608C-142.6 -612 -162.2 -611.6 -169.8 -606.8C-172.2 -605.2 -175.4 -606.4 -176.6 -608.8C-178.2 -611.6 -178.2 -610 -177.4 -605.2ZM-74.9998 -447.6C-74.9998 -443.2 -76.5999 -440.8 -78.9998 -442C-80.9998 -443.2 -82.9998 -447.2 -82.9998 -450.4C-82.9998 -453.6 -80.9998 -456 -78.9998 -456C-76.5999 -456 -74.9998 -452.4 -74.9998 -447.6ZM-83.7999 -440.8C-82.9998 -438 -84.9998 -436 -88.5999 -436C-92.1998 -436 -94.9998 -438.8 -94.9998 -442.4C-94.9998 -449.2 -86.1998 -448 -83.7999 -440.8ZM-17.3998 -373.6C-12.5999 -371.6 -12.1998 -369.6 -15.3998 -363.6C-20.9998 -352.8 -26.9998 -354 -26.9998 -366C-26.9998 -376.8 -26.5999 -377.2 -17.3998 -373.6ZM998.2 -298C1015 -281.2 1029 -265.6 1029 -262.4C1029 -259.6 1041 -243.6 1056.2 -226.8C1092.6 -185.2 1099.8 -176 1109.4 -153.6C1113.8 -142.8 1121.8 -128.4 1127.4 -121.2C1137.4 -108 1139.8 -94.4004 1133 -90.0002C1131 -88.8003 1129 -89.6003 1129 -91.6003C1129 -94.0002 1127.4 -96.0002 1125.4 -96.0002C1123 -96.0002 1113.4 -101.2 1103.8 -108C1091.8 -116 1083.8 -118.8 1077 -117.2C1069 -115.2 1068.2 -116 1070.2 -124.8C1072.2 -132.8 1070.2 -138 1059.8 -148.4C1052.2 -156 1044.2 -168.4 1041.8 -175.6C1035.8 -192.4 1035.8 -192 1043 -192C1052.2 -192 1050.2 -203.2 1040.2 -208.4C1023.4 -216.8 1013 -229.2 1010.6 -243.6C1009 -251.6 1004.6 -261.6 1000.2 -266C978.2 -289.2 957 -316.8 957 -322C957 -333.6 967.4 -327.6 998.2 -298ZM1121 -322C1123.8 -318.8 1124.2 -316 1121.8 -316C1119.8 -316 1115.8 -318.8 1113 -322C1110.2 -325.2 1109.8 -328 1112.2 -328C1114.2 -328 1118.2 -325.2 1121 -322ZM-291 -312.4C-291 -310.4 -294.6 -308 -299.4 -306.8C-305.8 -305.2 -306.6 -305.6 -302.6 -310.4C-297.4 -316.8 -291 -318 -291 -312.4ZM1148.2 -301.2C1150.6 -293.6 1138.2 -294.8 1135.4 -302.4C1133.8 -306.8 1135 -308 1139.8 -307.2C1143.4 -306.4 1147 -303.6 1148.2 -301.2ZM1200.2 -252.4C1204.6 -246 1207.4 -239.6 1206.2 -238.4C1203.4 -235.6 1181 -255.6 1181 -260.8C1181 -268 1192.2 -263.2 1200.2 -252.4ZM-335 -250.4C-335 -249.2 -336.6 -247.2 -339 -246C-341 -244.8 -343 -245.6 -343 -247.6C-343 -250 -341 -252 -339 -252C-336.6 -252 -335 -251.2 -335 -250.4ZM784.2 -213.6C789 -210.4 793 -204 793 -199.6C793 -192.8 795 -191.6 801.4 -193.2C807.4 -194.8 810.6 -192.8 813.8 -185.6C818.2 -176 825 -172.4 825 -180C825 -188 833.4 -183.6 857.4 -162C871 -150 884.2 -140 886.6 -140C889 -140 887.8 -138 883.8 -135.6C877.4 -131.6 877.4 -130.8 887 -119.6C892.6 -112.8 897 -104.4 897 -100.8C897 -92.4004 915.8 -64.0002 921.4 -64.0002C923.8 -64.0002 924.2 -66.0002 923 -68.0002C919.4 -74.0002 923.8 -72.8003 935 -65.6003C940.6 -62.0002 945 -56.0002 945 -52.0002C945 -48.4004 949.8 -40.0002 955.4 -34.0002C961 -28.0002 964.6 -20.4004 963.4 -17.6003C962.2 -14.4004 963 -12.0002 965 -12.0002C967 -12.0002 973.8 -2.40039 979.4 8.7998C985.4 20.3997 992.2 31.1997 994.6 32.7998C1001 37.1997 994.6 41.1997 985.4 37.9998C981 36.7998 976.2 32.3997 975 28.7998C971.4 17.9998 930.6 -25.2002 925.4 -23.6003C922.6 -22.4004 926.2 -14.0002 934.6 -1.2002C947.8 18.7998 951.4 35.1997 944.2 40.3997C942.2 41.5996 944.2 50.3997 948.6 60.3997C953.4 69.9998 957 80.3997 957 83.1997C957 91.9998 950.2 84.7998 947 73.1997C945.8 67.1997 941 54.7998 936.6 45.1997C932.6 35.9998 929 26.3997 929 24.3997C929 21.9998 928.2 19.9998 927.4 19.9998C926.6 19.9998 922.2 18.7998 918.2 17.1997C911.8 14.7998 911.4 15.1997 917 21.9998C922.6 28.7998 922.2 29.1997 915.4 26.7998C908.6 23.9998 908.2 25.1997 910.2 43.9998C913 65.9998 907.4 71.5996 903.4 50.7998C901.8 43.9998 893.4 25.9998 883.8 11.1997C874.6 -3.2002 860.2 -26.4004 852.2 -39.6003C843.4 -54.0002 833 -65.6003 827 -68.0002C815 -72.4004 810.2 -82.4004 815.8 -91.2002C821.4 -100.4 829.8 -102.4 826.2 -93.6003C824.6 -88.8003 825 -87.6003 828.2 -89.6003C835.4 -94.0002 834.2 -98.4004 821 -113.2C814.6 -120.8 810.2 -128 811.4 -129.2C813.8 -131.6 799.8 -154.4 791.4 -162C785.4 -167.6 773 -190 773 -195.6C773 -198 769.4 -203.6 765 -208C748.6 -224.4 761 -228 784.2 -213.6ZM1013 -216C1013 -214 1011 -212 1008.6 -212C1006.6 -212 1005.8 -214 1007 -216C1008.2 -218.4 1010.2 -220 1011.4 -220C1012.2 -220 1013 -218.4 1013 -216ZM-111 -190C-111 -186.8 -112.6 -184 -115 -184C-117 -184 -117.8 -186.8 -116.6 -190C-115 -193.2 -113.4 -196 -112.6 -196C-111.8 -196 -111 -193.2 -111 -190ZM931.4 -176.8C933.8 -175.2 937 -169.2 938.2 -163.2C940.6 -154.8 943.8 -152.4 954.2 -151.2C964.2 -150.4 968.2 -147.2 972.6 -137.2C975.8 -130.4 981 -124 984.6 -122.8C999.4 -119.2 1049.4 -48.0002 1037.8 -48.0002C1036.2 -48.0002 1026.2 -56.8003 1015 -67.2002C1004.2 -77.6003 988.2 -90.4004 980.2 -95.6003C970.2 -101.6 965 -107.6 965 -113.2C965 -126.8 959 -133.2 949.8 -130.4C943 -128 939.4 -130.4 932.2 -142C924.2 -154 921.4 -155.6 912.2 -153.6C903.4 -152 901 -152.8 901 -158C901 -161.6 904.6 -165.6 909 -166.8C913.4 -168 917 -171.6 917 -174.4C917 -180.4 924.2 -181.6 931.4 -176.8ZM895 -168C896.2 -166 895.4 -164 893.4 -164C891 -164 889 -166 889 -168C889 -170.4 889.8 -172 890.6 -172C891.8 -172 893.8 -170.4 895 -168ZM-54.9998 -156C-54.9998 -153.6 -58.1998 -150.4 -61.7999 -149.2C-65.7999 -147.6 -70.9998 -143.6 -73.7999 -140.4C-76.5999 -136.4 -78.5999 -136 -78.9998 -138.8C-78.9998 -141.2 -74.1998 -147.2 -68.5999 -151.6C-56.5999 -161.2 -54.9998 -161.6 -54.9998 -156ZM1063.8 -127.2C1062.6 -124.4 1061.8 -126.4 1061.8 -132C1061.8 -137.6 1062.6 -139.6 1063.8 -137.2C1064.6 -134.4 1064.6 -129.6 1063.8 -127.2ZM-102.2 -115.2C-101 -102.4 -106.6 -84.0002 -111.4 -84.0002C-115.8 -84.0002 -115 -115.6 -110.6 -118C-108.6 -119.6 -107.8 -122.4 -109 -124.4C-110.6 -126.4 -109.8 -128 -107.4 -128C-105.4 -128 -103 -122 -102.2 -115.2ZM-123.8 -108.8C-121.4 -101.6 -129.8 -103.2 -132.6 -110.4C-134.2 -114.4 -133 -116 -130.2 -115.2C-127.8 -114.4 -124.6 -111.2 -123.8 -108.8ZM-44.5999 -73.2002C-48.5999 -69.2002 -52.1998 -75.2002 -48.5999 -80.4004C-46.1998 -84.8003 -45.3998 -84.8003 -43.7999 -80.4004C-42.9998 -77.6003 -43.3998 -74.4004 -44.5999 -73.2002ZM89.0001 -80.0002C89.0001 -78.0002 86.2001 -76.0002 83.0001 -76.0002C79.8002 -76.0002 77.0001 -78.0002 77.0001 -80.0002C77.0001 -82.4004 79.8002 -84.0002 83.0001 -84.0002C86.2001 -84.0002 89.0001 -82.4004 89.0001 -80.0002ZM-475 -72.4004C-475 -65.6003 -482.2 -64.0002 -484.6 -70.0002C-485.8 -73.6003 -484.6 -76.0002 -481 -76.0002C-477.8 -76.0002 -475 -74.4004 -475 -72.4004ZM-488.2 -62.0002C-484.6 -52.4004 -488.6 -51.2002 -494.2 -60.0002C-497.4 -65.2002 -497.4 -68.0002 -495 -68.0002C-492.6 -68.0002 -489.8 -65.2002 -488.2 -62.0002ZM-318.2 -50.8003C-303.8 -44.0002 -299.4 -39.6003 -299 -33.2002C-299 -28.0002 -300.6 -24.0002 -303 -24.0002C-305 -24.0002 -307 -26.8003 -307 -30.0002C-307 -35.6003 -339.8 -52.4004 -348.2 -50.8003C-350.6 -50.4004 -353.4 -53.2002 -354.2 -57.2002C-356.2 -66.0002 -349 -64.8003 -318.2 -50.8003ZM-183 -56.0002C-183 -52.4004 -207.8 -44.0002 -219.8 -44.0002C-230.2 -44.0002 -228.6 -55.2002 -217.8 -57.2002C-201 -60.4004 -183 -60.0002 -183 -56.0002ZM-245 -48.0002C-243.8 -46.0002 -244.6 -44.0002 -246.6 -44.0002C-249 -44.0002 -251 -46.0002 -251 -48.0002C-251 -50.4004 -250.2 -52.0002 -249.4 -52.0002C-248.2 -52.0002 -246.2 -50.4004 -245 -48.0002ZM-86.9998 -48.0002C-86.9998 -46.0002 -88.9998 -44.0002 -91.3998 -44.0002C-93.3998 -44.0002 -94.1998 -46.0002 -92.9998 -48.0002C-91.7999 -50.4004 -89.7999 -52.0002 -88.5999 -52.0002C-87.7999 -52.0002 -86.9998 -50.4004 -86.9998 -48.0002ZM1037 -24.4004C1037 -10.8003 1033 -16.4004 1030.6 -32.8003C1029 -42.8003 1029.8 -44.4004 1032.6 -40.0002C1035 -36.8003 1037 -29.6003 1037 -24.4004ZM1049 -29.6003C1051.4 -24.0002 1053 -17.6003 1053 -15.6003C1053 -8.00024 1045.8 -16.0002 1041.8 -28.0002C1036.2 -42.8003 1043.4 -44.4004 1049 -29.6003ZM-271 -26.0002C-271 -22.8003 -271.8 -20.0002 -272.6 -20.0002C-273.4 -20.0002 -275 -22.8003 -276.6 -26.0002C-277.8 -29.2002 -277 -32.0002 -275 -32.0002C-272.6 -32.0002 -271 -29.2002 -271 -26.0002ZM-205.8 -15.6003C-194.6 -16.8003 -189.8 -15.6003 -193 -12.4004C-198.2 -7.2002 -223.8 -5.60034 -230.2 -9.60034C-234.2 -12.0002 -232.6 -14.8003 -224.2 -20.0002C-215 -25.6003 -212.6 -26.0002 -211 -21.2002C-209.8 -18.0002 -207.4 -15.6003 -205.8 -15.6003ZM-307 -1.60034C-307 1.59961 -308.6 3.99976 -311 3.99976C-313 3.99976 -315 0.399658 -315 -4.40039C-315 -8.80029 -313 -11.2002 -311 -10.0002C-308.6 -8.80029 -307 -4.80029 -307 -1.60034ZM-493 31.1997C-495 36.3997 -496.2 35.9998 -501.8 27.9998C-506.2 21.5996 -507 17.9998 -503.8 16.7998C-501.4 15.9998 -500.2 12.3997 -501.4 8.7998C-502.6 5.19971 -500.6 7.19971 -497 13.1997C-493.4 19.5996 -491.4 27.5996 -493 31.1997ZM-213.4 18.7998C-219.4 28.3997 -239 33.1997 -241.8 25.5996C-244.6 18.3997 -235.4 7.19971 -228.6 9.59961C-225.8 10.7998 -222.2 9.59961 -220.6 7.59961C-219 4.7998 -216.6 4.7998 -213.8 7.59961C-210.6 10.7998 -210.6 13.9998 -213.4 18.7998ZM-179 8.39966C-179 15.5996 -195 39.9998 -199.8 39.9998C-201.8 39.9998 -203 38.7998 -202.2 36.7998C-201.4 35.1997 -197.4 27.1997 -193.8 18.7998C-187.4 4.7998 -179 -1.2002 -179 8.39966ZM-424.6 22.7998C-428.6 26.7998 -432.2 20.7998 -428.6 15.5996C-426.2 11.1997 -425.4 11.1997 -423.8 15.5996C-423 18.3997 -423.4 21.5996 -424.6 22.7998ZM-435 35.9998C-435 40.3997 -436.6 43.9998 -439 43.9998C-441 43.9998 -443 40.3997 -443 35.9998C-443 31.5996 -441 27.9998 -439 27.9998C-436.6 27.9998 -435 31.5996 -435 35.9998ZM41.0001 37.5996C41.0001 38.7998 39.4001 40.7998 37.0001 41.9998C35.0001 43.1997 33.0001 42.3997 33.0001 40.3997C33.0001 37.9998 35.0001 35.9998 37.0001 35.9998C39.4001 35.9998 41.0001 36.7998 41.0001 37.5996ZM-229.4 56.3997C-232.6 61.5996 -239 56.7998 -239 49.1997C-239 43.9998 -237.8 43.9998 -233 47.9998C-229.8 50.7998 -228.2 54.3997 -229.4 56.3997ZM-293.8 65.5996C-295.4 67.5996 -298.6 65.9998 -301.4 61.9998C-304.2 57.9998 -305.8 53.1997 -304.6 51.1997C-303.4 49.1997 -299.8 50.7998 -297 54.7998C-294.2 58.7998 -292.6 63.5996 -293.8 65.5996ZM421 74.3997C421 77.5996 419.4 79.1997 417 77.9998C415 76.7998 413 73.9998 413 71.5996C413 69.5996 415 67.9998 417 67.9998C419.4 67.9998 421 70.7998 421 74.3997ZM-298.2 85.9998C-298.2 87.9998 -300.2 90.3997 -302.6 91.1997C-305 91.9998 -307 89.5996 -307 85.9998C-307 82.3997 -305 79.9998 -302.6 80.7998C-300.2 81.5996 -298.2 83.9998 -298.2 85.9998ZM363.8 124.8C362.6 128 361.4 126.8 361.4 122.4C361 118 362.2 115.6 363.4 117.2C364.6 118.4 365 122 363.8 124.8ZM327.8 156.8C326.6 159.6 325.8 157.6 325.8 152C325.8 146.4 326.6 144.4 327.8 146.8C328.6 149.6 328.6 154.4 327.8 156.8ZM447.8 152.8C446.6 156 445.4 154.8 445.4 150.4C445 146 446.2 143.6 447.4 145.2C448.6 146.4 449 150 447.8 152.8ZM445 174.8C445 177.6 443.4 180 441 180C439 180 437 175.2 437 168.8C437 160.4 437.8 159.2 441 164C443 167.2 445 172.4 445 174.8ZM191 211.6C192.2 213.6 191.4 216.4 189 218C187 219.2 185 217.6 185 214.4C185 207.2 187.4 206 191 211.6ZM204.2 286C201.4 294.4 196.6 302 193.8 303.2C188.6 304.8 190.6 298 202.2 270.8C209 255.2 210.6 267.2 204.2 286ZM791 443.6C792.2 448 791 457.2 787.8 464.8L782.2 478V466C782.2 459.2 780.6 450 779 444.8C777 438.4 777.8 436 782.2 436C785.8 436 789.4 439.6 791 443.6ZM759.8 472.8C758.6 476 757.4 474.8 757.4 470.4C757 466 758.2 463.6 759.4 465.2C760.6 466.4 761 470 759.8 472.8ZM929 808.4C925.4 814.8 905 820 905 814.4C905 808.8 910.6 800 913.8 800C915.8 800 916.2 802.4 914.6 804.8C913 807.6 915 806.8 919 803.2C928.2 794.8 934.6 798 929 808.4ZM930.2 833.6C947 837.6 943.4 844.8 926.2 841.6C917.8 840 909.8 838 907.8 837.2C903.4 834.4 908.6 828 914.2 830C917 830.8 923.8 832.4 930.2 833.6ZM989 920.4C989 922.8 987.4 923.2 985 922C983 920.8 981 917.6 981 915.6C981 913.2 983 912.8 985 914C987.4 915.2 989 918.4 989 920.4ZM948.6 926.4C943 933.6 939 930.8 942.6 922C943.8 918.4 947 916.8 949 918C952.2 920 951.8 922.4 948.6 926.4ZM921 926C921 930 917 932 907.4 932C892.2 932 884.6 925.6 895.8 922.8C911 918.8 921 920 921 926ZM1001.4 1008C1012.2 1008 1013 1008.8 1008.6 1016.4C1005.8 1022 1005 1032.8 1007 1046.4C1008.2 1058.4 1008.2 1068 1006.2 1068C999.8 1068 993 1058.8 993 1050C993 1045.6 987.8 1036.8 981 1030.8C971 1021.2 969.8 1018 973.4 1011.2C975.8 1006.4 980.2 1004.4 983.8 1005.6C987 1006.8 995 1008 1001.4 1008ZM1062.2 1010.8C1073 1012.4 1076.2 1014.4 1072.2 1016.8C1068.6 1019.2 1069.4 1020 1075.8 1019.2C1085 1018 1086.2 1020 1082.6 1030C1076.6 1044.8 1104.6 1058.8 1116.2 1047.2C1120.2 1043.2 1121.8 1044 1123.4 1051.2C1125 1056 1128.2 1060 1131 1060C1134.2 1060 1139.4 1063.2 1143.4 1066.8C1147.4 1070.8 1153.4 1074 1156.6 1074C1166.6 1074 1165.4 1104 1155 1109.6C1142.6 1116.4 1137 1125.2 1139.8 1133.6C1141.4 1139.2 1140.2 1140.8 1135.4 1138.8C1127.4 1135.6 1117.4 1151.6 1124.6 1156C1128.2 1158 1127.8 1160 1123.4 1164C1119.8 1166.8 1117.8 1170.4 1119 1172C1119.8 1173.6 1117.4 1178 1113 1182C1108.2 1186.4 1106.2 1190.8 1108.6 1193.6C1113.8 1200.8 1116.6 1216 1112.6 1218.4C1110.6 1219.6 1109 1218.4 1109 1216.4C1109 1214 1106.2 1212 1103 1212C1099.8 1212 1097 1214.8 1097 1218C1097 1221.2 1095.4 1224 1093 1224C1091 1224 1088.2 1228.4 1086.6 1234C1085.4 1239.6 1082.6 1244 1080.6 1244C1078.6 1244 1077 1247.6 1077 1252C1077 1256.4 1075.4 1260 1073 1260C1071 1260 1069 1262.8 1069 1266C1069 1269.2 1066.6 1275.6 1064.2 1280C1059.8 1286.8 1060.2 1288.8 1064.6 1291.6C1069.4 1294.8 1069.4 1298 1065.4 1312.8C1062.6 1322.4 1061 1332 1061.4 1334C1061.8 1336.4 1061 1341.2 1059 1345.6C1057 1349.6 1057.4 1354 1059.8 1355.6C1065.4 1358.8 1063 1376.4 1055 1393.6C1051 1401.6 1049 1410.4 1050.2 1414C1051.8 1417.2 1051 1420.8 1048.6 1422.4C1046.6 1423.6 1045 1427.6 1045.8 1431.2C1046.2 1435.2 1045 1440.4 1043 1443.6C1041 1447.2 1041 1450 1043.8 1450.8C1051 1453.2 1044.6 1472 1036.6 1472C1032.2 1472 1029 1473.6 1029 1476C1029 1478 1026.6 1480 1023.8 1480C1020.6 1480 1015 1483.6 1011 1488C1006.6 1492.8 999.8 1496 995.4 1495.2C990.6 1494.8 982.6 1496.8 977.4 1499.6C968.6 1504.4 966.6 1504 960.6 1496.4C953.8 1488 937 1484.4 937 1491.6C937 1499.6 923.4 1500 916.2 1492C912.2 1487.6 906.2 1484 903 1484C896.2 1484 891.4 1490.8 896.6 1493.6C899.4 1495.6 899.8 1513.2 897 1535.6C897 1536.4 893.8 1534.8 890.2 1531.6C877 1521.2 865 1516 854.6 1516C847 1516 844.6 1514.4 846.2 1510.4C849.4 1502 831.4 1491.2 819 1494.4C813.4 1495.6 809 1498.4 809 1500.4C809 1502.4 807.4 1504 805 1504C803 1504 801 1500.4 801 1496C801 1488 796.2 1486 776.6 1487.6C768.2 1488.4 765.8 1486.4 763.8 1478C762.2 1469.2 764.2 1466 774.2 1460C782.2 1454.8 788.2 1453.6 791 1456C793.8 1458.4 796.6 1458.8 797.8 1457.6C799 1456.4 806.2 1459.2 813.8 1463.2C827.4 1470.8 827.8 1470.8 838.2 1463.2C844.6 1458.4 849 1457.2 849 1460C849 1467.2 865.8 1479.2 872.2 1476.8C875.8 1475.6 876.6 1471.6 875 1465.2C873.4 1458.4 874.2 1456.4 877 1458C879.4 1459.6 884.2 1457.6 887.4 1453.6C892.6 1446.8 893 1447.2 890.6 1460.8C888.2 1476 890.6 1478.8 900.6 1472.4C903.8 1470.4 905 1466 903 1460.4C901.4 1454.4 902.6 1448.8 906.6 1444.4C912.6 1437.6 912.6 1435.6 907 1419.6C903.8 1410 900.6 1401.2 900.2 1400C899.8 1398.8 901.4 1393.6 903.8 1388C906.2 1382.4 910.6 1359.6 913.4 1336.8C916.2 1314.4 919.8 1296 921.8 1296C923.8 1296 924.2 1291.6 923.4 1286C921 1273.6 929 1256.8 938.2 1253.6C941.8 1252.4 945 1248.8 945 1245.2C945 1240.8 947.4 1239.6 954.6 1241.6C966.6 1244.4 970.2 1239.6 965.4 1226.8C962.6 1219.6 963 1214.8 967.4 1209.6C971 1205.2 972.6 1204.4 971 1206.8C969.4 1210 971 1212 975.4 1212C980.6 1212 981.4 1209.6 979.4 1199.2C978.2 1192.4 974.2 1183.2 970.6 1179.6C967 1175.6 963.4 1163.6 962.6 1153.2C961.8 1142.8 959.4 1133.6 957 1132.8C950.2 1130.4 952.6 1124 960.2 1124C964.2 1124 976.6 1115.2 988.2 1104.8C999.8 1094 1009 1088 1009 1090.8C1009 1093.6 1010.6 1096 1012.6 1096C1016.6 1096 1023.4 1079.6 1027 1060.8C1028.6 1053.6 1033.4 1046 1037.8 1043.6C1045.8 1039.2 1045.8 1039.2 1036.6 1033.6C1031.4 1030.8 1023.8 1026.8 1019.8 1025.6C1013 1023.2 1013 1022.4 1019.4 1015.6C1026.6 1007.6 1037 1006.4 1062.2 1010.8ZM917 1286C917 1289.2 916.2 1292 915.4 1292C914.6 1292 913 1289.2 911.4 1286C910.2 1282.8 911 1280 913 1280C915.4 1280 917 1282.8 917 1286ZM-523 1352C-523 1354 -524.6 1356 -526.6 1356C-529 1356 -531.8 1354 -533 1352C-534.2 1349.6 -532.6 1348 -529.4 1348C-525.8 1348 -523 1349.6 -523 1352ZM-504.6 1376.4C-499.4 1382.4 -500.6 1388 -507 1388C-511 1388 -518.6 1357.2 -515.4 1354C-514.2 1352.4 -512.2 1355.6 -511.8 1360.8C-511 1365.6 -507.8 1372.8 -504.6 1376.4ZM-526.2 1416C-524.2 1429.2 -529 1435.6 -535.8 1428.8C-540.6 1424 -537 1404 -531.4 1404C-529.4 1404 -527 1409.6 -526.2 1416ZM-467 1456C-467 1458 -468.6 1460 -471 1460C-473 1460 -475 1458 -475 1456C-475 1453.6 -473 1452 -471 1452C-468.6 1452 -467 1453.6 -467 1456ZM863.4 1466.8C859 1471.2 855.8 1464.4 859 1457.2C862.2 1450.4 862.2 1450.4 863.8 1457.2C865 1461.2 864.6 1465.6 863.4 1466.8ZM753 1484.4C753 1486.4 751.4 1488 749 1488C747 1488 745 1485.2 745 1481.6C745 1478.4 747 1476.8 749 1478C751.4 1479.2 753 1482 753 1484.4ZM-463 1492C-463 1494 -463.8 1496 -464.6 1496C-465.8 1496 -467.8 1494 -469 1492C-470.2 1489.6 -469.4 1488 -467.4 1488C-465 1488 -463 1489.6 -463 1492ZM-76.1998 1512.8C-77.3998 1515.6 -78.1998 1513.6 -78.1998 1508C-78.1998 1502.4 -77.3998 1500.4 -76.1998 1502.8C-75.3998 1505.6 -75.3998 1510.4 -76.1998 1512.8ZM-119 1508C-119 1510 -120.6 1512 -123 1512C-125 1512 -127 1514.8 -127 1518.4C-127 1524 -128.2 1524 -133 1520C-141 1513.6 -140.6 1509.2 -131.8 1506.8C-120.2 1503.6 -119 1504 -119 1508ZM-647 1544.4C-647 1548.8 -648.6 1551.6 -651 1550C-653 1548.8 -653.8 1545.2 -652.2 1542C-649.4 1533.6 -647 1534.4 -647 1544.4ZM-563 1542C-560.6 1545.2 -559.4 1551.2 -561 1556.4C-564.2 1566.4 -569 1562.4 -572.6 1546.8C-575.4 1535.2 -571 1532.4 -563 1542ZM-113.4 1550.4C-112.2 1553.6 -112.6 1555.2 -115 1554C-117.4 1552.8 -119 1550 -119 1547.6C-119 1542 -116.2 1543.2 -113.4 1550.4ZM-358.6 1569.2C-361.8 1572.4 -364.2 1572.4 -367.8 1568.8C-371.4 1565.2 -371 1564 -365.8 1564C-362.2 1564 -359 1561.6 -358.6 1558.8C-358.6 1555.2 -357.8 1555.6 -356.2 1559.2C-355 1562.4 -356.2 1566.8 -358.6 1569.2ZM-293 1563.2C-294.2 1564.4 -297.4 1563.2 -300.2 1560.4C-303.8 1556.4 -303.4 1556 -297.8 1558.4C-293.8 1559.6 -291.8 1562 -293 1563.2ZM-155 1575.2C-155 1580.4 -156.6 1583.2 -159 1582C-161 1580.8 -163 1573.6 -163 1566.8C-163 1557.2 -161.8 1555.6 -159 1560C-157 1563.2 -155 1570 -155 1575.2ZM-635 1563.6C-635 1566 -636.6 1568.8 -639 1570C-641 1571.2 -643 1569.6 -643 1566.4C-643 1562.8 -641 1560 -639 1560C-636.6 1560 -635 1561.6 -635 1563.6ZM-56.1998 1580.8C-57.3998 1583.6 -58.1998 1581.6 -58.1998 1576C-58.1998 1570.4 -57.3998 1568.4 -56.1998 1570.8C-55.3998 1573.6 -55.3998 1578.4 -56.1998 1580.8ZM-495 1597.2C-495 1599.2 -496.6 1599.2 -499 1598C-501 1596.8 -503 1592.4 -503 1588.8C-503 1582.8 -502.2 1582.8 -499 1588C-497 1591.2 -495 1595.6 -495 1597.2ZM-623 1594.4C-623 1598 -625 1600 -627.8 1599.2C-635 1596.8 -636.2 1588 -629.4 1588C-625.8 1588 -623 1590.8 -623 1594.4ZM-295.4 1598.8C-295.8 1605.6 -296.6 1607.2 -297.8 1602.8C-298.6 1599.2 -303 1596 -307.4 1596C-311.8 1596 -314.2 1594 -313 1592C-311.8 1589.6 -307 1588 -302.6 1588C-297 1588 -295 1590.8 -295.4 1598.8ZM-239 1600C-239 1604.4 -240.6 1608 -242.6 1608C-247 1608 -251.4 1597.6 -248.2 1594.4C-243.4 1589.6 -239 1592.4 -239 1600ZM-628.2 1603.2C-621.8 1607.2 -614.2 1628 -619 1628C-621.4 1628 -623 1626 -623 1623.6C-623 1621.6 -625 1620.8 -627.4 1622.4C-632.6 1625.6 -639 1617.2 -639 1606.8C-639 1599.6 -635.8 1598.4 -628.2 1603.2ZM-658.2 1640.8C-661.4 1644 -661.8 1642.4 -660.2 1635.6C-658.6 1630.4 -657 1628.4 -655.8 1631.6C-655 1634.4 -656.2 1638.8 -658.2 1640.8ZM-635 1632C-635 1634 -635.8 1636 -636.6 1636C-637.8 1636 -639.8 1634 -641 1632C-642.2 1629.6 -641.4 1628 -639.4 1628C-637 1628 -635 1629.6 -635 1632ZM999.4 1685.2C1001 1686.8 1006.2 1688 1011 1688C1022.2 1688 1024.6 1691.2 1042.2 1724.4C1055.4 1750 1055.8 1751.6 1049.4 1761.6C1046.2 1767.2 1039.8 1772 1035.8 1772C1029 1772 1005 1751.6 1005 1746C1005 1744.4 999.8 1738 993 1732C985.4 1725.2 981 1716.8 981 1710.4C981 1704.4 978.2 1695.6 975 1690.4C969 1681.6 969.4 1681.2 982.6 1681.6C990.2 1682 997.8 1683.6 999.4 1685.2ZM-151 1706C-151 1709.6 -161.4 1716.4 -183.8 1727.2C-185.8 1728 -187 1726.8 -187 1724.4C-187 1721.6 -182.6 1718 -177.4 1716.4C-172.2 1714.4 -167 1710 -165.8 1706.8C-163.4 1700.4 -151 1699.2 -151 1706ZM-373.4 1723.2C-375 1730.8 -378.6 1736 -381.8 1736C-386.2 1736 -387 1734 -385 1728.8C-383.4 1725.2 -381 1718 -379.8 1712.8C-379 1707.2 -376.6 1704.8 -374.6 1706.8C-372.6 1708.8 -372.2 1716.4 -373.4 1723.2ZM-439 1712C-439 1714 -441.8 1716 -445 1716C-451.8 1716 -453 1724.4 -446.6 1730.8C-444.2 1733.2 -443 1739.2 -443.8 1744.4L-445 1754L-452.2 1743.6C-457.8 1735.2 -458.2 1731.2 -454.6 1720.8C-450.6 1709.2 -439 1702.8 -439 1712ZM-331 1725.6C-331.4 1734 -331.4 1734 -339 1724.4C-343.4 1719.6 -345.8 1713.6 -344.6 1711.2C-341 1705.6 -331 1716 -331 1725.6ZM-67.3998 1721.2C-61.7999 1728 -65.7999 1732 -77.7999 1732C-87.7999 1732 -88.1998 1731.6 -84.5999 1722.4C-81.7999 1714.4 -73.3998 1714 -67.3998 1721.2ZM-50.9998 1724.4C-50.9998 1726.8 -52.5999 1727.2 -54.9998 1726C-56.9998 1724.8 -58.9998 1721.6 -58.9998 1719.6C-58.9998 1717.2 -56.9998 1716.8 -54.9998 1718C-52.5999 1719.2 -50.9998 1722.4 -50.9998 1724.4ZM-413.4 1739.2C-409.8 1744.8 -417 1751.6 -422.6 1748.4C-425.4 1746.4 -426.6 1742.8 -425.4 1740.4C-422.2 1735.2 -416.2 1734.8 -413.4 1739.2ZM-323 1740C-323 1742 -324.6 1744 -327 1744C-329 1744 -331 1742 -331 1740C-331 1737.6 -329 1736 -327 1736C-324.6 1736 -323 1737.6 -323 1740ZM-323 1754.4C-323 1755.6 -325 1760 -327 1764.4C-333.4 1775.6 -339 1773.6 -333.8 1762C-329.4 1753.2 -323 1748.4 -323 1754.4ZM-77.7999 1758C-78.9998 1761.6 -80.9998 1763.6 -81.7999 1762.4C-82.9998 1761.2 -82.5999 1758.8 -80.9998 1756.4C-77.3998 1750 -74.9998 1751.2 -77.7999 1758ZM-405.4 1758.4C-401.4 1760 -399 1765.6 -399 1774.4C-399 1792.8 -404.2 1791.6 -409.8 1772C-411.8 1763.2 -413.4 1756 -412.6 1756C-412.2 1756 -409 1757.2 -405.4 1758.4ZM-516.6 1794C-519 1800.8 -513 1802.4 -509 1796C-507.8 1793.6 -503.8 1792 -500.2 1792C-495 1792 -494.6 1792.8 -499.4 1798.8C-504.2 1804.8 -504.2 1805.2 -497.8 1802.8C-492.6 1800.8 -491 1802.4 -491 1810.4C-491 1818.8 -492.2 1820.4 -497.8 1818C-501.8 1816.4 -508.2 1815.2 -511.8 1815.2C-515.4 1815.2 -519.4 1812.8 -520.6 1809.2C-523.4 1802.8 -520.2 1788 -516.2 1788C-515 1788 -515 1790.8 -516.6 1794ZM-371 1796C-371 1798 -371.8 1800 -372.6 1800C-373.8 1800 -375.8 1798 -377 1796C-378.2 1793.6 -377.4 1792 -375.4 1792C-373 1792 -371 1793.6 -371 1796ZM-394.2 1812C-396.2 1824 -397.4 1825.6 -402.6 1822C-405 1820.8 -407 1815.2 -407 1809.6C-407 1802 -405 1799.6 -399.8 1800.8C-395 1801.6 -393.4 1805.2 -394.2 1812ZM-424.6 1818.4C-425.8 1821.6 -429 1823.2 -431.4 1821.6C-434.6 1819.6 -435 1820.4 -433 1824C-430.6 1828 -427.8 1826.8 -421 1819.2L-412.2 1809.2L-407.8 1825.6C-405.4 1835.6 -405 1842.4 -407.4 1843.2C-409.4 1844 -411 1847.2 -411 1850.4C-411 1853.6 -412.6 1856 -414.6 1856C-416.6 1856 -419.8 1860 -421.4 1864.8L-424.2 1874L-427.4 1864.8C-429.4 1860 -432.6 1856 -434.6 1856C-436.6 1856 -439.4 1853.2 -440.6 1849.6C-442.2 1845.6 -441.4 1844.4 -438.2 1846.4C-435 1848.4 -434.6 1845.6 -436.6 1836C-438.2 1826.8 -437 1819.6 -432.2 1812.4C-425.4 1802 -419.8 1806.4 -424.6 1818.4ZM-230.6 1868C-222.6 1872.4 -219.8 1885.6 -227.8 1883.2C-233 1881.2 -245.4 1864 -241.4 1864C-239.8 1864 -235 1866 -230.6 1868ZM57.0001 1898C57.0001 1900 55.0001 1899.2 53.0001 1896C51.0001 1892.8 49.0001 1888 49.0001 1886C49.0001 1883.6 51.0001 1884.8 53.0001 1888C55.0001 1891.2 57.0001 1895.6 57.0001 1898ZM-211 1900C-211 1902 -207.8 1904 -203.8 1904C-197 1904 -184.2 1922.8 -188.6 1926.8C-189.4 1927.6 -195.4 1923.6 -201.4 1918C-208.2 1912 -213.4 1909.2 -214.2 1912C-215.4 1914.8 -217.8 1913.6 -221 1909.2C-223.8 1905.2 -225.4 1900.8 -224.6 1899.2C-221.8 1894.4 -211 1895.2 -211 1900ZM-319 1922.8C-319.4 1932.8 -324.6 1944 -329.4 1944C-336.2 1944 -336.6 1931.2 -330.2 1924.8C-325 1919.6 -319 1918.4 -319 1922.8ZM-167 1932C-167 1934 -168.6 1936 -171 1936C-173 1936 -175 1934 -175 1932C-175 1929.6 -173 1928 -171 1928C-168.6 1928 -167 1929.6 -167 1932ZM-352.2 1942.4C-353.4 1943.6 -357 1944 -359.8 1942.8C-363 1941.6 -361.8 1940.4 -357.4 1940.4C-353 1940 -350.6 1941.2 -352.2 1942.4ZM-247 2013.6C-247 2014.4 -250.6 2016 -255 2017.2C-259.4 2018.4 -263 2017.6 -263 2015.6C-263 2013.6 -259.4 2012 -255 2012C-250.6 2012 -247 2012.8 -247 2013.6ZM-411 2308C-411 2310 -414.6 2313.6 -419 2316C-428.6 2321.2 -429.4 2318.8 -420.6 2310.4C-413.4 2303.2 -411 2302.4 -411 2308ZM1577.8 2768.8C1574.2 2772.4 1571.8 2772.4 1568.2 2768.8C1564.6 2765.2 1565.4 2764 1573 2764C1580.6 2764 1581.4 2765.2 1577.8 2768.8ZM771 2860C772.2 2862 771.4 2864 769.4 2864C767 2864 765 2862 765 2860C765 2857.6 765.8 2856 766.6 2856C767.8 2856 769.8 2857.6 771 2860ZM1357.8 2946C1356.6 2952.4 1353.4 2956 1348.6 2956C1344.6 2956 1340.2 2957.6 1339 2960C1334.2 2968 1324.6 2964.4 1325.8 2954.8C1326.6 2947.6 1329.4 2946 1339.4 2946.8C1347.8 2947.6 1353 2946 1354.6 2942C1358.2 2932.8 1360.2 2934.8 1357.8 2946ZM686.6 3039.6C685.4 3055.6 683 3067.6 682.2 3066.4C681 3065.2 681.4 3051.6 683 3036C684.6 3020.4 686.6 3008.4 687.8 3009.2C688.6 3010.4 688.2 3024 686.6 3039.6Z" fill="black"/>
<path d="M633.4 22.4C633.4 26.8 634.6 28 635.8 24.8C637 22 636.6 18.4 635.4 17.2C634.2 15.6 633 18 633.4 22.4Z" fill="black"/>
<path d="M125 372C125 379.2 123.8 379.6 117 375.2C110.6 371.2 107.8 371.6 100.2 378.4C95 382.8 84.6 390.4 77 395.6C59.4 407.2 47.8 422.8 50.6 430.4C51.8 433.6 55 435.2 57 434C59.8 432 60.2 435.2 58.2 442.8C56.6 448.8 55.4 461.2 55.4 470C55.8 478.8 55 483.6 54.2 480.8C51.8 475.2 38.6 474.4 35 480C33.8 482 29 484 24.6 484C20.6 484 17 486.8 17 490C17 496.8 24.6 497.6 37.8 492.4C54.2 485.6 63 482.8 66.2 482.4C70.6 482 76.6 470.8 74.6 467.2C73.4 465.6 75.4 465.2 78.6 466.4C82.6 468 87.4 462.8 94.6 448.4C100.2 437.2 105 425.2 104.6 421.2C104.6 416.4 103.4 417.2 101.4 424C97.4 436.8 85.4 460 82.6 460C81.8 460 83.8 454.4 87 447.6C90.6 440.8 95 428 96.2 418.8C97.8 409.6 101 402 103 402C111 401.6 120.2 393.6 126.6 381.2C134.2 366.4 134.6 364 129 364C127 364 125 367.6 125 372Z" fill="black"/>
<path d="M167.8 830.8C149 832.4 144.6 840 163 840C168.2 840 173.8 841.6 175 844C176.2 846 173.8 848 169.4 848C163 848 161 850.4 161 857.6C161 870.4 150.6 873.6 122.6 870C104.6 868 100.6 868.4 98.6 874C97 877.6 93.4 879.6 89.8 878C86.2 876.8 78.6 880.4 71.4 887.6C56.2 902.4 39.4 907.2 34.2 898.4C32.2 894.8 25 890.8 17.4 889.6C5.4 887.2 4.2 887.6 5.8 896.4C6.6 903.6 9.8 906.4 18.2 907.2C24.2 908 29 910.4 29 912.4C29 914.4 32.6 916 37 916C41.4 916 45 917.6 45 919.2C45 924.8 35.4 932 27.8 932C22.2 932 20.6 930 22.2 924C25 913.6 20.2 914 10.6 924.4C5.8 930 0.6 931.6 -5.8 930C-11 928.8 -15 929.6 -15 931.2C-15 937.6 5 956.4 8.6 954C10.6 952.8 13.4 953.6 15 956C16.2 958 21 960 25.4 960C31 960 33 962.8 33 972C33 984.4 43.8 1001.2 49.8 997.6C51.4 996.4 53 998.4 53 1001.6C53 1012.4 64.6 1008.8 67.4 997.2L70.2 986.8L78.2 1002C89.4 1024 100.6 1032.4 115 1030C121.8 1028.8 137 1026.8 149 1025.6C182.2 1022.4 189 1020.4 189 1014C189 1010.8 191.4 1006.8 194.2 1005.2C201.8 1000 209.4 984 206.6 979.2C205 976.4 205.4 976 208.2 977.6C218.6 984 222.2 929.6 211.8 916.8C209.8 914 209 910.8 210.2 909.2C214.2 905.2 236.2 916 238.6 923.2C239.8 926.8 247.4 937.6 255 947.2C264.2 958.8 269 968.8 269 976.8V988.8L300.2 987.2C333.8 985.6 355.4 977.6 354.6 966.8C354.2 963.2 355.4 960.8 357 962C361.4 964.8 366.2 949.2 362.6 943.6C361 940.4 359 940.8 356.6 944.4C353.8 948.8 353 948.4 353 943.2C353 939.6 345.8 932.4 337 927.6C318.2 917.2 318.2 910.4 336.2 908.8C351.8 907.2 352.2 902.8 339 883.6C326.2 866 283.8 842.4 248.2 834C223.8 828.4 208.6 827.6 167.8 830.8ZM247.8 894.4C244.2 898 236.6 892 239.4 887.2C241 884.8 243.4 884.8 246.2 887.6C248.6 890 249.4 892.8 247.8 894.4ZM313 922.4C313 925.6 311.4 927.2 309 926C307 924.8 305 922 305 919.6C305 917.6 307 916 309 916C311.4 916 313 918.8 313 922.4ZM121 928.8C121 932.4 122.6 932 125 928C127.4 924 129 923.6 129 926.8C129 929.6 125.4 935.6 120.6 940.4C112.6 948.4 112.6 960 121 960C123 960 125 961.6 125 963.6C125 965.2 120.6 966 115 964.8C103.8 962.8 103.4 960.4 109.4 938.8C113 924.8 121 918.4 121 928.8ZM216.6 950.8C216.6 952.8 215 957.6 213 962C209.8 969.2 209.4 968.8 209.4 958.8C209 952.8 211 948 213 948C215.4 948 217 949.2 216.6 950.8Z" fill="black"/>
<path d="M417.4 1304.8C411.4 1320.8 423.8 1356 433 1350C434.2 1349.2 446.6 1348 460.6 1347.6C483 1346.8 485.4 1346 484.2 1338.4C482.6 1327.2 443 1296 430.6 1296C424.2 1296 419.8 1298.8 417.4 1304.8Z" fill="black"/>
<path d="M123 1996C121.8 1998 122.6 2000 124.6 2000C127 2000 129 1998 129 1996C129 1993.6 128.2 1992 127.4 1992C126.2 1992 124.2 1993.6 123 1996Z" fill="black"/>
<path d="M679.4 2271.6C677.8 2273.6 678.6 2276.4 680.6 2277.6C682.6 2279.2 685.4 2278.4 686.6 2276.4C688.2 2274.4 687.4 2271.6 685.4 2270.4C683.4 2268.8 680.6 2269.6 679.4 2271.6Z" fill="black"/>
</svg>
